<svg width="215" height="151" viewBox="0 0 215 151" fill="none" xmlns="http://www.w3.org/2000/svg">
<mask id="mask0_4735_6336" style="mask-type:luminance" maskUnits="userSpaceOnUse" x="5" y="94" width="205" height="41">
<path d="M209.138 94.7933H5.44141V134.444H209.138V94.7933Z" fill="white"/>
</mask>
<g mask="url(#mask0_4735_6336)">
<path d="M8.69922 103.858H18.697C21.084 103.858 23.1947 104.317 25.026 105.231C26.8634 106.139 28.2938 107.424 29.3142 109.082C30.3347 110.734 30.8449 112.662 30.8449 114.864C30.8449 117.069 30.3347 119.001 29.3142 120.659C28.2938 122.311 26.8634 123.596 25.026 124.51C23.1947 125.418 21.084 125.87 18.697 125.87H8.69922V103.858ZM18.4418 121.691C20.6437 121.691 22.4021 121.081 23.714 119.857C25.026 118.627 25.682 116.963 25.682 114.864C25.682 112.769 25.026 111.108 23.714 109.884C22.4021 108.654 20.6437 108.037 18.4418 108.037H13.7892V121.691H18.4418Z" fill="#07306D"/>
<path d="M51.1259 108.948L43.4849 126.903C42.7074 128.853 41.7477 130.225 40.6058 131.021C39.4639 131.823 38.0821 132.224 36.4634 132.224C35.5887 132.224 34.7171 132.084 33.8516 131.811C32.9921 131.543 32.2906 131.167 31.75 130.681L33.5479 127.195C33.9184 127.526 34.3527 127.784 34.8477 127.972C35.3397 128.166 35.8317 128.264 36.3176 128.264C36.9797 128.264 37.5233 128.1 37.9454 127.778C38.3645 127.453 38.7411 126.909 39.0752 126.15L39.1481 125.992L31.8107 108.948H36.8764L41.6263 120.428L46.4125 108.948H51.1259Z" fill="#07306D"/>
<path d="M53.1406 102.534H58.0484V125.87H53.1406V102.534Z" fill="#07306D"/>
<path d="M69.4322 108.693C72.0561 108.693 74.0666 109.319 75.4697 110.564C76.8788 111.812 77.5834 113.695 77.5834 116.213V125.87H72.9915V123.769C72.0683 125.342 70.3463 126.125 67.8286 126.125C66.5318 126.125 65.4051 125.907 64.4515 125.47C63.4949 125.026 62.766 124.413 62.2649 123.635C61.7608 122.858 61.5117 121.98 61.5117 120.999C61.5117 119.429 62.1009 118.193 63.2853 117.294C64.4667 116.389 66.298 115.933 68.7762 115.933H72.6756C72.6756 114.864 72.3477 114.044 71.6917 113.467C71.0418 112.884 70.0699 112.593 68.7762 112.593C67.8772 112.593 66.9904 112.735 66.1158 113.018C65.2472 113.303 64.5123 113.686 63.9049 114.172L62.1434 110.746C63.0575 110.09 64.16 109.586 65.4476 109.228C66.7414 108.872 68.0716 108.693 69.4322 108.693ZM69.0556 122.821C69.8968 122.821 70.6409 122.627 71.2908 122.238C71.9377 121.849 72.3993 121.278 72.6756 120.525V118.788H69.3107C67.2941 118.788 66.2858 119.453 66.2858 120.78C66.2858 121.406 66.5318 121.904 67.0269 122.275C67.5189 122.639 68.1961 122.821 69.0556 122.821Z" fill="#07306D"/>
<path d="M92.301 108.693C94.3965 108.693 96.0911 109.325 97.3788 110.588C98.6665 111.846 99.3103 113.71 99.3103 116.188V125.87H94.4026V116.942C94.4026 115.599 94.105 114.597 93.5158 113.941C92.9327 113.279 92.0854 112.945 90.9769 112.945C89.7439 112.945 88.7599 113.331 88.0249 114.099C87.2869 114.861 86.9195 115.994 86.9195 117.5V125.87H82.0117V108.948H86.7008V110.928C87.3477 110.218 88.1525 109.665 89.1182 109.276C90.0901 108.888 91.15 108.693 92.301 108.693Z" fill="#07306D"/>
<path d="M120.235 126.247C118.491 126.247 116.809 126.01 115.181 125.542C113.559 125.075 112.257 124.458 111.27 123.696L113.007 119.869C113.945 120.559 115.063 121.115 116.36 121.534C117.662 121.947 118.965 122.153 120.271 122.153C121.72 122.153 122.789 121.941 123.478 121.509C124.165 121.081 124.511 120.51 124.511 119.796C124.511 119.28 124.304 118.846 123.891 118.497C123.484 118.15 122.962 117.871 122.324 117.658C121.692 117.449 120.83 117.218 119.737 116.966C118.06 116.571 116.688 116.173 115.618 115.775C114.549 115.381 113.629 114.74 112.861 113.856C112.099 112.975 111.719 111.8 111.719 110.333C111.719 109.055 112.062 107.898 112.752 106.859C113.447 105.823 114.492 105 115.886 104.393C117.277 103.786 118.977 103.482 120.988 103.482C122.397 103.482 123.77 103.649 125.106 103.98C126.448 104.314 127.627 104.794 128.641 105.425L127.062 109.301C125.027 108.144 122.995 107.564 120.964 107.564C119.536 107.564 118.485 107.794 117.805 108.256C117.125 108.718 116.785 109.325 116.785 110.078C116.785 110.84 117.176 111.402 117.963 111.767C118.747 112.131 119.946 112.493 121.559 112.848C123.235 113.246 124.608 113.647 125.677 114.05C126.746 114.448 127.66 115.077 128.422 115.933C129.191 116.793 129.576 117.956 129.576 119.42C129.576 120.683 129.224 121.834 128.52 122.87C127.821 123.909 126.77 124.729 125.361 125.336C123.958 125.943 122.251 126.247 120.235 126.247Z" fill="#07306D"/>
<path d="M154.391 108.693C156.51 108.693 158.196 109.319 159.444 110.564C160.689 111.812 161.315 113.686 161.315 116.188V125.87H156.407V116.942C156.407 115.599 156.128 114.597 155.569 113.941C155.016 113.279 154.227 112.945 153.2 112.945C152.04 112.945 151.126 113.318 150.455 114.062C149.79 114.81 149.459 115.915 149.459 117.379V125.87H144.551V116.942C144.551 114.278 143.482 112.945 141.344 112.945C140.208 112.945 139.306 113.318 138.635 114.062C137.961 114.81 137.627 115.915 137.627 117.379V125.87H132.719V108.948H137.408V110.904C138.04 110.193 138.808 109.647 139.716 109.264C140.63 108.884 141.635 108.693 142.729 108.693C143.919 108.693 144.994 108.933 145.96 109.41C146.923 109.881 147.7 110.564 148.292 111.463C148.979 110.582 149.853 109.902 150.916 109.422C151.976 108.936 153.133 108.693 154.391 108.693Z" fill="#07306D"/>
<path d="M165.712 108.948H170.62V125.87H165.712V108.948ZM168.166 106.592C167.267 106.592 166.532 106.33 165.968 105.802C165.4 105.277 165.117 104.63 165.117 103.858C165.117 103.081 165.4 102.431 165.968 101.903C166.532 101.377 167.267 101.113 168.166 101.113C169.071 101.113 169.806 101.368 170.365 101.878C170.93 102.382 171.215 103.008 171.215 103.761C171.215 104.581 170.93 105.255 170.365 105.79C169.806 106.324 169.071 106.592 168.166 106.592Z" fill="#07306D"/>
<path d="M186.101 125.056C185.615 125.415 185.02 125.682 184.315 125.858C183.617 126.034 182.882 126.125 182.104 126.125C180.088 126.125 178.527 125.612 177.428 124.583C176.334 123.556 175.788 122.044 175.788 120.052V113.103H173.176V109.325H175.788V105.207H180.683V109.325H184.899V113.103H180.683V119.991C180.683 120.704 180.865 121.254 181.23 121.643C181.6 122.032 182.123 122.226 182.797 122.226C183.574 122.226 184.233 122.016 184.777 121.594L186.101 125.056Z" fill="#07306D"/>
<path d="M199.156 108.693C201.252 108.693 202.947 109.325 204.234 110.588C205.522 111.846 206.166 113.71 206.166 116.188V125.87H201.258V116.942C201.258 115.599 200.96 114.597 200.371 113.941C199.788 113.279 198.941 112.945 197.832 112.945C196.599 112.945 195.615 113.331 194.88 114.099C194.142 114.861 193.775 115.994 193.775 117.5V125.87H188.867V102.534H193.775V110.71C194.431 110.063 195.214 109.565 196.132 109.216C197.055 108.869 198.063 108.693 199.156 108.693Z" fill="#07306D"/>
</g>
<mask id="mask1_4735_6336" style="mask-type:luminance" maskUnits="userSpaceOnUse" x="0" y="132" width="215" height="19">
<path d="M214.581 132.889H0V150.771H214.581V132.889Z" fill="white"/>
</mask>
<g mask="url(#mask1_4735_6336)">
<path d="M5.65399 137.183C6.83537 137.183 7.76165 137.469 8.43586 138.034C9.10703 138.602 9.44414 139.379 9.44414 140.366C9.44414 141.356 9.10703 142.128 8.43586 142.686C7.76165 143.245 6.83537 143.525 5.65399 143.525H3.16367V146.452H2.17969V137.183H5.65399ZM5.62969 142.662C6.54382 142.662 7.24537 142.465 7.73128 142.067C8.2172 141.663 8.46016 141.095 8.46016 140.366C8.46016 139.613 8.2172 139.039 7.73128 138.641C7.24537 138.237 6.54382 138.034 5.62969 138.034H3.16367V142.662H5.62969Z" fill="#07306D"/>
<path d="M12.0825 140.852C12.3012 140.385 12.6292 140.032 13.0665 139.795C13.5038 139.552 14.0444 139.431 14.6943 139.431V140.354L14.4635 140.33C13.7347 140.33 13.1576 140.558 12.7385 141.01C12.3255 141.466 12.119 142.097 12.119 142.905V146.452H11.1836V139.492H12.0825V140.852Z" fill="#07306D"/>
<path d="M19.1644 146.513C18.4902 146.513 17.8828 146.364 17.3422 146.064C16.8077 145.757 16.3855 145.335 16.0788 144.8C15.769 144.26 15.6172 143.646 15.6172 142.966C15.6172 142.286 15.769 141.678 16.0788 141.144C16.3855 140.603 16.8077 140.181 17.3422 139.88C17.8828 139.583 18.4902 139.431 19.1644 139.431C19.8355 139.431 20.4399 139.583 20.9744 139.88C21.515 140.181 21.9371 140.603 22.2378 141.144C22.5445 141.678 22.6994 142.286 22.6994 142.966C22.6994 143.646 22.5445 144.26 22.2378 144.8C21.9371 145.335 21.515 145.757 20.9744 146.064C20.4399 146.364 19.8355 146.513 19.1644 146.513ZM19.1644 145.687C19.6564 145.687 20.0998 145.575 20.4885 145.347C20.8833 145.122 21.1931 144.8 21.4117 144.387C21.6365 143.974 21.7519 143.5 21.7519 142.966C21.7519 142.441 21.6365 141.97 21.4117 141.557C21.1931 141.138 20.8833 140.816 20.4885 140.597C20.0998 140.372 19.6564 140.257 19.1644 140.257C18.6694 140.257 18.2229 140.372 17.8281 140.597C17.4394 140.816 17.1296 141.138 16.9049 141.557C16.6862 141.97 16.5769 142.441 16.5769 142.966C16.5769 143.5 16.6862 143.974 16.9049 144.387C17.1296 144.8 17.4394 145.122 17.8281 145.347C18.2229 145.575 18.6694 145.687 19.1644 145.687Z" fill="#07306D"/>
<path d="M28.2047 139.431C28.8607 139.431 29.4499 139.583 29.9783 139.88C30.5128 140.172 30.9289 140.591 31.2296 141.132C31.5272 141.666 31.679 142.28 31.679 142.966C31.679 143.664 31.5272 144.284 31.2296 144.825C30.9289 145.359 30.5159 145.778 29.9905 146.076C29.462 146.367 28.8668 146.513 28.2047 146.513C27.6459 146.513 27.1357 146.401 26.6741 146.173C26.2185 145.939 25.848 145.596 25.5565 145.14V149.016H24.6211V139.492H25.52V140.864C25.8025 140.403 26.176 140.05 26.6376 139.807C27.0993 139.558 27.6216 139.431 28.2047 139.431ZM28.144 145.687C28.6299 145.687 29.0703 145.575 29.4681 145.347C29.8629 145.122 30.1727 144.8 30.3914 144.387C30.6161 143.974 30.7315 143.5 30.7315 142.966C30.7315 142.441 30.6161 141.976 30.3914 141.569C30.1727 141.156 29.8629 140.837 29.4681 140.609C29.0703 140.375 28.6299 140.257 28.144 140.257C27.649 140.257 27.2025 140.375 26.8077 140.609C26.419 140.837 26.1092 141.156 25.8845 141.569C25.6567 141.976 25.5443 142.441 25.5443 142.966C25.5443 143.5 25.6567 143.974 25.8845 144.387C26.1092 144.8 26.419 145.122 26.8077 145.347C27.2025 145.575 27.649 145.687 28.144 145.687Z" fill="#07306D"/>
<path d="M39.657 143.258H33.8382C33.8868 143.986 34.1601 144.576 34.6642 145.019C35.1653 145.465 35.8 145.687 36.5714 145.687C37.0088 145.687 37.4036 145.611 37.7619 145.456C38.1264 145.304 38.4422 145.077 38.7095 144.776L39.2318 145.383C38.9221 145.748 38.5394 146.027 38.0778 146.222C37.6162 146.416 37.1059 146.513 36.5471 146.513C35.8335 146.513 35.1987 146.364 34.6399 146.064C34.0872 145.757 33.659 145.335 33.3522 144.8C33.0425 144.26 32.8906 143.646 32.8906 142.966C32.8906 142.286 33.0364 141.678 33.3279 141.144C33.6256 140.603 34.0356 140.181 34.5549 139.88C35.0712 139.583 35.6512 139.431 36.292 139.431C36.9389 139.431 37.519 139.583 38.0292 139.88C38.5394 140.181 38.9403 140.597 39.2318 141.132C39.5234 141.666 39.6692 142.28 39.6692 142.966L39.657 143.258ZM36.292 140.245C35.6178 140.245 35.056 140.46 34.6035 140.889C34.1479 141.32 33.8928 141.879 33.8382 142.565H38.7702C38.7034 141.879 38.4453 141.32 37.9927 140.889C37.5372 140.46 36.9723 140.245 36.292 140.245Z" fill="#07306D"/>
<path d="M42.4888 140.852C42.7075 140.385 43.0354 140.032 43.4728 139.795C43.9101 139.552 44.4507 139.431 45.1006 139.431V140.354L44.8698 140.33C44.1409 140.33 43.5639 140.558 43.1448 141.01C42.7317 141.466 42.5252 142.097 42.5252 142.905V146.452H41.5898V139.492H42.4888V140.852Z" fill="#07306D"/>
<path d="M50.7694 146.027C50.5902 146.191 50.3715 146.313 50.1134 146.392C49.8522 146.471 49.5819 146.513 49.2995 146.513C48.6435 146.513 48.1363 146.34 47.781 145.991C47.4317 145.635 47.2586 145.137 47.2586 144.497V140.281H46.0195V139.492H47.2586V137.961H48.194V139.492H50.3199V140.281H48.194V144.436C48.194 144.858 48.2973 145.177 48.5099 145.395C48.7194 145.608 49.0201 145.711 49.4088 145.711C49.6032 145.711 49.7884 145.684 49.9676 145.626C50.1437 145.562 50.3017 145.474 50.4414 145.359L50.7694 146.027Z" fill="#07306D"/>
<path d="M58.1945 139.492L54.708 147.291C54.4226 147.938 54.0946 148.399 53.724 148.676C53.3596 148.949 52.9132 149.089 52.3878 149.089C52.0537 149.089 51.7439 149.034 51.4524 148.931C51.1608 148.824 50.9118 148.666 50.6992 148.457L51.1365 147.752C51.4828 148.098 51.9049 148.275 52.3999 148.275C52.7218 148.275 52.9952 148.184 53.2138 148.007C53.4386 147.837 53.6512 147.537 53.8455 147.108L54.1492 146.44L51.0394 139.492H52.0233L54.6473 145.408L57.2591 139.492H58.1945Z" fill="#07306D"/>
<path d="M69.8078 146.598L68.5322 145.274C67.7457 146.118 66.7131 146.537 65.4345 146.537C64.8271 146.537 64.2865 146.437 63.8188 146.234C63.3481 146.033 62.9806 145.754 62.7134 145.395C62.4461 145.04 62.3125 144.636 62.3125 144.181C62.3125 143.622 62.4886 143.124 62.847 142.686C63.2023 142.243 63.8006 141.775 64.6449 141.289C64.2076 140.828 63.9039 140.439 63.7338 140.123C63.5637 139.801 63.4787 139.455 63.4787 139.091C63.4787 138.501 63.6883 138.028 64.1104 137.669C64.5386 137.305 65.1096 137.123 65.8232 137.123C66.4853 137.123 67.0137 137.287 67.4025 137.609C67.7912 137.934 67.9856 138.383 67.9856 138.957C67.9856 139.419 67.8307 139.832 67.524 140.196C67.2142 140.561 66.6797 140.967 65.9204 141.411L68.4593 144.035C68.7418 143.525 68.9483 142.926 69.0789 142.237L69.8564 142.48C69.6863 143.306 69.4099 144.017 69.0303 144.606L70.3544 145.979L69.8078 146.598ZM65.8232 137.815C65.3677 137.815 65.0093 137.934 64.7421 138.167C64.4809 138.395 64.3533 138.699 64.3533 139.078C64.3533 139.355 64.4202 139.619 64.5599 139.868C64.7056 140.111 64.985 140.445 65.3981 140.864C66.0692 140.476 66.5309 140.144 66.7829 139.868C67.0411 139.595 67.1717 139.294 67.1717 138.969C67.1717 138.623 67.0532 138.344 66.8194 138.131C66.5825 137.921 66.2515 137.815 65.8232 137.815ZM65.4831 145.748C66.5035 145.748 67.3326 145.401 67.9734 144.703L65.1794 141.836C64.4414 142.249 63.9342 142.626 63.6609 142.966C63.3846 143.3 63.2479 143.67 63.2479 144.083C63.2479 144.588 63.4483 144.991 63.8553 145.298C64.2683 145.599 64.8089 145.748 65.4831 145.748Z" fill="#07306D"/>
<path d="M82.0331 141.824H82.9685V145.359C82.5372 145.733 82.027 146.024 81.4378 146.234C80.8456 146.437 80.223 146.537 79.5671 146.537C78.6347 146.537 77.7965 146.337 77.0524 145.93C76.3145 145.517 75.7344 144.955 75.3153 144.241C74.8931 143.522 74.6836 142.717 74.6836 141.824C74.6836 140.925 74.8931 140.12 75.3153 139.407C75.7344 138.687 76.3145 138.125 77.0524 137.718C77.7965 137.305 78.6377 137.099 79.5792 137.099C80.2838 137.099 80.9307 137.214 81.5229 137.439C82.112 137.666 82.6101 138.004 83.0171 138.447L82.4097 139.066C81.6808 138.338 80.7484 137.973 79.6156 137.973C78.8686 137.973 78.1943 138.14 77.5869 138.471C76.9795 138.805 76.4997 139.267 76.1535 139.856C75.8133 140.439 75.6433 141.095 75.6433 141.824C75.6433 142.547 75.8133 143.197 76.1535 143.78C76.4997 144.363 76.9735 144.825 77.5748 145.165C78.1822 145.499 78.8564 145.663 79.6035 145.663C80.5571 145.663 81.368 145.426 82.0331 144.946V141.824Z" fill="#07306D"/>
<path d="M87.9658 139.431C88.8799 139.431 89.5815 139.662 90.0674 140.123C90.5533 140.579 90.7963 141.25 90.7963 142.14V146.452H89.8973V145.371C89.6787 145.73 89.3628 146.009 88.9498 146.209C88.5428 146.413 88.0569 146.513 87.492 146.513C86.7146 146.513 86.095 146.331 85.6334 145.966C85.1779 145.596 84.9531 145.104 84.9531 144.497C84.9531 143.907 85.1657 143.428 85.597 143.063C86.0252 142.699 86.7055 142.516 87.6378 142.516H89.8487V142.091C89.8487 141.493 89.6787 141.041 89.3385 140.731C89.0045 140.415 88.5185 140.257 87.8808 140.257C87.4343 140.257 87.0092 140.33 86.6052 140.476C86.1983 140.621 85.8521 140.822 85.5605 141.071L85.1353 140.378C85.4907 140.081 85.9158 139.85 86.4109 139.686C86.9029 139.516 87.4222 139.431 87.9658 139.431ZM87.6378 145.772C88.1723 145.772 88.6248 145.651 88.9984 145.408C89.378 145.165 89.6604 144.819 89.8487 144.363V143.221H87.6621C86.4716 143.221 85.8764 143.64 85.8764 144.472C85.8764 144.879 86.0282 145.198 86.338 145.432C86.6538 145.66 87.0851 145.772 87.6378 145.772Z" fill="#07306D"/>
<path d="M94.2466 140.852C94.4653 140.385 94.7933 140.032 95.2306 139.795C95.6679 139.552 96.2085 139.431 96.8584 139.431V140.354L96.6276 140.33C95.8987 140.33 95.3217 140.558 94.9026 141.01C94.4896 141.466 94.283 142.097 94.283 142.905V146.452H93.3477V139.492H94.2466V140.852Z" fill="#07306D"/>
<path d="M104.835 136.625V146.452H103.936V145.08C103.651 145.541 103.28 145.9 102.819 146.149C102.357 146.392 101.835 146.513 101.252 146.513C100.596 146.513 100 146.364 99.4659 146.064C98.9375 145.766 98.5244 145.347 98.2268 144.812C97.9262 144.272 97.7773 143.655 97.7773 142.966C97.7773 142.279 97.9262 141.666 98.2268 141.132C98.5244 140.591 98.9375 140.172 99.4659 139.88C100 139.583 100.596 139.431 101.252 139.431C101.81 139.431 102.315 139.549 102.77 139.783C103.232 140.02 103.608 140.363 103.9 140.816V136.625H104.835ZM101.325 145.687C101.81 145.687 102.248 145.575 102.637 145.347C103.031 145.122 103.344 144.8 103.572 144.387C103.797 143.974 103.912 143.5 103.912 142.966C103.912 142.44 103.797 141.97 103.572 141.557C103.344 141.138 103.031 140.816 102.637 140.597C102.248 140.372 101.81 140.257 101.325 140.257C100.83 140.257 100.383 140.372 99.9883 140.597C99.5995 140.816 99.2898 141.138 99.065 141.557C98.8464 141.97 98.737 142.44 98.737 142.966C98.737 143.5 98.8464 143.974 99.065 144.387C99.2898 144.8 99.5995 145.122 99.9883 145.347C100.383 145.575 100.83 145.687 101.325 145.687Z" fill="#07306D"/>
<path d="M113.516 143.258H107.698C107.746 143.986 108.019 144.576 108.524 145.019C109.025 145.465 109.659 145.687 110.431 145.687C110.868 145.687 111.263 145.611 111.621 145.456C111.986 145.304 112.302 145.077 112.569 144.776L113.091 145.383C112.781 145.748 112.399 146.027 111.937 146.222C111.476 146.416 110.965 146.513 110.407 146.513C109.693 146.513 109.058 146.364 108.499 146.064C107.947 145.757 107.518 145.335 107.212 144.8C106.902 144.26 106.75 143.646 106.75 142.966C106.75 142.286 106.896 141.678 107.187 141.144C107.485 140.603 107.895 140.181 108.414 139.88C108.931 139.583 109.511 139.431 110.151 139.431C110.798 139.431 111.378 139.583 111.889 139.88C112.399 140.181 112.8 140.597 113.091 141.132C113.383 141.666 113.529 142.28 113.529 142.966L113.516 143.258ZM110.151 140.245C109.477 140.245 108.915 140.46 108.463 140.889C108.007 141.32 107.752 141.879 107.698 142.565H112.63C112.563 141.879 112.305 141.32 111.852 140.889C111.397 140.46 110.832 140.245 110.151 140.245Z" fill="#07306D"/>
<path d="M119 139.431C119.875 139.431 120.567 139.686 121.078 140.196C121.594 140.706 121.855 141.447 121.855 142.419V146.452H120.92V142.504C120.92 141.785 120.737 141.235 120.373 140.852C120.015 140.473 119.501 140.281 118.83 140.281C118.077 140.281 117.482 140.506 117.045 140.949C116.607 141.396 116.389 142.012 116.389 142.796V146.452H115.453V139.492H116.352V140.767C116.61 140.348 116.966 140.02 117.421 139.783C117.874 139.549 118.399 139.431 119 139.431Z" fill="#07306D"/>
<path d="M137.708 137.183V146.452H136.76V139.042L133.128 145.274H132.654L129.022 139.079V146.452H128.074V137.183H128.888L132.909 144.059L136.894 137.183H137.708Z" fill="#07306D"/>
<path d="M142.95 139.431C143.864 139.431 144.566 139.662 145.052 140.123C145.538 140.579 145.781 141.25 145.781 142.14V146.452H144.882V145.371C144.663 145.73 144.347 146.009 143.934 146.209C143.527 146.413 143.041 146.513 142.476 146.513C141.699 146.513 141.079 146.331 140.618 145.966C140.162 145.596 139.938 145.104 139.938 144.497C139.938 143.907 140.15 143.428 140.581 143.063C141.01 142.699 141.69 142.516 142.622 142.516H144.833V142.091C144.833 141.493 144.663 141.041 144.323 140.731C143.989 140.415 143.503 140.257 142.865 140.257C142.419 140.257 141.994 140.33 141.59 140.476C141.183 140.621 140.836 140.822 140.545 141.071L140.12 140.378C140.475 140.081 140.9 139.85 141.395 139.686C141.887 139.516 142.407 139.431 142.95 139.431ZM142.622 145.772C143.157 145.772 143.609 145.651 143.983 145.408C144.362 145.165 144.645 144.819 144.833 144.363V143.221H142.646C141.456 143.221 140.861 143.64 140.861 144.472C140.861 144.879 141.013 145.198 141.322 145.432C141.638 145.66 142.069 145.772 142.622 145.772Z" fill="#07306D"/>
<path d="M148.336 139.492H149.271V146.452H148.336V139.492ZM148.81 137.961C148.615 137.961 148.448 137.897 148.312 137.767C148.181 137.639 148.117 137.481 148.117 137.293C148.117 137.117 148.181 136.962 148.312 136.831C148.448 136.694 148.615 136.625 148.81 136.625C149.004 136.625 149.165 136.691 149.296 136.819C149.432 136.95 149.502 137.104 149.502 137.281C149.502 137.475 149.432 137.639 149.296 137.767C149.165 137.897 149.004 137.961 148.81 137.961Z" fill="#07306D"/>
<path d="M155.438 139.431C156.312 139.431 157.005 139.686 157.515 140.196C158.031 140.706 158.293 141.447 158.293 142.419V146.452H157.357V142.504C157.357 141.785 157.175 141.235 156.811 140.852C156.452 140.473 155.939 140.281 155.268 140.281C154.515 140.281 153.919 140.506 153.482 140.949C153.045 141.396 152.826 142.012 152.826 142.796V146.452H151.891V139.492H152.79V140.767C153.048 140.348 153.403 140.02 153.859 139.783C154.311 139.549 154.836 139.431 155.438 139.431Z" fill="#07306D"/>
<path d="M164.523 146.027C164.344 146.191 164.125 146.313 163.867 146.392C163.606 146.471 163.336 146.513 163.053 146.513C162.397 146.513 161.89 146.34 161.535 145.991C161.186 145.635 161.013 145.137 161.013 144.497V140.281H159.773V139.492H161.013V137.961H161.948V139.492H164.074V140.281H161.948V144.436C161.948 144.858 162.051 145.177 162.264 145.395C162.473 145.608 162.774 145.711 163.163 145.711C163.357 145.711 163.542 145.684 163.722 145.626C163.898 145.562 164.056 145.474 164.195 145.359L164.523 146.027Z" fill="#07306D"/>
<path d="M172.044 143.258H166.225C166.273 143.986 166.547 144.576 167.051 145.019C167.552 145.465 168.187 145.687 168.958 145.687C169.395 145.687 169.79 145.611 170.149 145.456C170.513 145.304 170.829 145.077 171.096 144.776L171.619 145.383C171.309 145.748 170.926 146.027 170.465 146.222C170.003 146.416 169.493 146.513 168.934 146.513C168.22 146.513 167.585 146.364 167.027 146.064C166.474 145.757 166.046 145.335 165.739 144.8C165.429 144.26 165.277 143.646 165.277 142.966C165.277 142.286 165.423 141.678 165.715 141.144C166.012 140.603 166.422 140.181 166.942 139.88C167.458 139.583 168.038 139.431 168.679 139.431C169.326 139.431 169.906 139.583 170.416 139.88C170.926 140.181 171.327 140.597 171.619 141.132C171.91 141.666 172.056 142.28 172.056 142.966L172.044 143.258ZM168.679 140.245C168.005 140.245 167.443 140.46 166.99 140.889C166.535 141.32 166.28 141.879 166.225 142.565H171.157C171.09 141.879 170.832 141.32 170.379 140.889C169.924 140.46 169.359 140.245 168.679 140.245Z" fill="#07306D"/>
<path d="M177.52 139.431C178.394 139.431 179.087 139.686 179.597 140.196C180.113 140.706 180.375 141.447 180.375 142.419V146.452H179.439V142.504C179.439 141.785 179.257 141.235 178.893 140.852C178.534 140.473 178.021 140.281 177.35 140.281C176.597 140.281 176.001 140.506 175.564 140.949C175.127 141.396 174.908 142.012 174.908 142.796V146.452H173.973V139.492H174.872V140.767C175.13 140.348 175.485 140.02 175.941 139.783C176.393 139.549 176.919 139.431 177.52 139.431Z" fill="#07306D"/>
<path d="M185.368 139.431C186.282 139.431 186.984 139.662 187.47 140.123C187.956 140.579 188.199 141.25 188.199 142.14V146.452H187.3V145.371C187.081 145.73 186.765 146.009 186.352 146.209C185.945 146.413 185.459 146.513 184.894 146.513C184.117 146.513 183.497 146.331 183.036 145.966C182.58 145.596 182.355 145.104 182.355 144.497C182.355 143.907 182.568 143.428 182.999 143.063C183.428 142.699 184.108 142.516 185.04 142.516H187.251V142.091C187.251 141.493 187.081 141.041 186.741 140.731C186.407 140.415 185.921 140.257 185.283 140.257C184.837 140.257 184.412 140.33 184.008 140.476C183.601 140.621 183.254 140.822 182.963 141.071L182.538 140.378C182.893 140.081 183.318 139.85 183.813 139.686C184.305 139.516 184.825 139.431 185.368 139.431ZM185.04 145.772C185.575 145.772 186.027 145.651 186.401 145.408C186.78 145.165 187.063 144.819 187.251 144.363V143.221H185.064C183.874 143.221 183.279 143.64 183.279 144.472C183.279 144.879 183.431 145.198 183.74 145.432C184.056 145.66 184.487 145.772 185.04 145.772Z" fill="#07306D"/>
<path d="M194.289 139.431C195.164 139.431 195.856 139.686 196.367 140.196C196.883 140.706 197.144 141.447 197.144 142.419V146.452H196.209V142.504C196.209 141.785 196.027 141.235 195.662 140.852C195.304 140.473 194.79 140.281 194.119 140.281C193.366 140.281 192.771 140.506 192.334 140.949C191.896 141.396 191.678 142.012 191.678 142.796V146.452H190.742V139.492H191.641V140.767C191.899 140.348 192.255 140.02 192.71 139.783C193.163 139.549 193.688 139.431 194.289 139.431Z" fill="#07306D"/>
<path d="M202.623 146.513C201.934 146.513 201.314 146.364 200.764 146.064C200.221 145.766 199.796 145.344 199.489 144.8C199.179 144.26 199.027 143.646 199.027 142.966C199.027 142.286 199.179 141.678 199.489 141.144C199.796 140.603 200.221 140.181 200.764 139.88C201.314 139.583 201.934 139.431 202.623 139.431C203.221 139.431 203.756 139.549 204.227 139.783C204.694 140.02 205.068 140.363 205.344 140.816L204.64 141.29C204.412 140.943 204.12 140.682 203.765 140.512C203.416 140.342 203.036 140.257 202.623 140.257C202.113 140.257 201.654 140.372 201.25 140.597C200.853 140.816 200.54 141.138 200.315 141.557C200.096 141.97 199.987 142.441 199.987 142.966C199.987 143.51 200.096 143.986 200.315 144.399C200.54 144.806 200.853 145.122 201.25 145.347C201.654 145.575 202.113 145.687 202.623 145.687C203.036 145.687 203.416 145.602 203.765 145.432C204.12 145.262 204.412 145.007 204.64 144.667L205.344 145.14C205.068 145.596 204.691 145.939 204.215 146.173C203.744 146.401 203.212 146.513 202.623 146.513Z" fill="#07306D"/>
<path d="M213.126 143.258H207.307C207.356 143.986 207.629 144.576 208.133 145.019C208.634 145.465 209.269 145.687 210.04 145.687C210.478 145.687 210.872 145.611 211.231 145.456C211.595 145.304 211.911 145.077 212.178 144.776L212.701 145.383C212.391 145.748 212.008 146.027 211.547 146.222C211.085 146.416 210.575 146.513 210.016 146.513C209.302 146.513 208.667 146.364 208.109 146.064C207.556 145.757 207.128 145.335 206.821 144.8C206.511 144.26 206.359 143.646 206.359 142.966C206.359 142.286 206.505 141.678 206.797 141.144C207.094 140.603 207.504 140.181 208.024 139.88C208.54 139.583 209.12 139.431 209.761 139.431C210.408 139.431 210.988 139.583 211.498 139.88C212.008 140.181 212.409 140.597 212.701 141.132C212.992 141.666 213.138 142.28 213.138 142.966L213.126 143.258ZM209.761 140.245C209.087 140.245 208.525 140.46 208.072 140.889C207.617 141.32 207.362 141.879 207.307 142.565H212.239C212.172 141.879 211.914 141.32 211.461 140.889C211.006 140.46 210.441 140.245 209.761 140.245Z" fill="#07306D"/>
</g>
<mask id="mask2_4735_6336" style="mask-type:luminance" maskUnits="userSpaceOnUse" x="28" y="30" width="55" height="66">
<path d="M28.4766 30.6886H82.4133V95.4127H28.4766V30.6886Z" fill="white"/>
</mask>
<g mask="url(#mask2_4735_6336)">
<path d="M65.574 95.1303C63.6607 94.7598 62.0025 94.4591 60.6055 94.2283C57.4895 93.7181 55.0387 93.3324 52.3054 93.9307C49.6511 94.5077 47.8805 94.9633 45.5694 94.9754C45.5633 94.9754 45.5603 94.9754 45.5603 94.9724C45.5573 94.9693 45.5573 94.9663 45.5573 94.9633L45.5755 94.9208C45.5816 94.9116 45.5876 94.9056 45.5967 94.9056C47.5465 94.6535 49.3565 94.116 51.0299 93.2899C53.3198 92.1601 54.1124 90.3592 54.2157 87.8962C54.4009 83.523 54.5983 79.9484 54.5528 76.2707C54.5528 76.1522 54.5346 76.0399 54.5042 75.9245C53.8786 73.6498 52.0807 72.107 50.0854 71.0076C48.2814 70.0175 46.3803 69.2036 44.3789 68.5628C42.8756 68.086 41.3966 67.8856 39.9388 67.9645C38.5327 68.0405 37.2329 68.3867 35.8055 68.8027C34.1473 69.2887 32.395 69.3008 30.7975 68.5294C30.1355 68.2105 29.437 67.8066 28.696 67.3207C28.6413 67.2812 28.5988 67.2417 28.5745 67.1992C28.5441 67.1476 28.535 67.0929 28.5502 67.0352C28.5654 66.9745 28.5988 66.932 28.6504 66.8986C29.5858 66.3398 30.5364 65.9206 31.4991 65.6412C33.1178 65.1736 34.5178 65.7415 36.3005 66.4157C37.0811 66.7133 37.8524 66.7254 38.8243 66.5857C39.6655 66.4703 40.5007 66.4066 41.3298 66.4035C41.345 66.4035 41.3541 66.3975 41.3602 66.3853C41.3632 66.3732 41.3632 66.361 41.3541 66.3519C40.9957 65.9328 40.6617 65.4681 40.358 64.961C40.0117 64.3839 39.0521 64.0013 38.3991 63.8768C37.7067 63.7462 36.7682 63.8919 35.845 63.9405C34.0228 64.0347 32.5225 63.4637 31.3412 62.2307C30.6335 61.4897 30.1324 60.6879 29.8439 59.8194C29.7771 59.622 29.7589 59.4762 29.7893 59.379C29.8439 59.215 29.9563 59.133 30.1324 59.13C32.3646 59.0753 34.533 59.5369 36.4524 60.8155C37.655 61.6173 38.8668 62.4342 40.0937 63.2633C40.7801 63.7249 41.1992 64.1076 41.8643 64.7848C43.0153 65.9541 44.385 66.6131 45.9278 67.1871C48.3148 68.0769 50.3769 68.8119 52.3206 70.0449C52.3328 70.054 52.3449 70.054 52.3571 70.0418C52.3662 70.0297 52.3692 70.0175 52.3631 70.0054C51.1787 67.9402 49.8151 65.8508 48.2784 63.734C47.8259 63.1114 47.2215 62.3856 46.4623 61.5474C44.9468 59.8771 43.401 57.9516 41.8248 55.7741C41.5515 55.3945 41.0595 55.0604 40.3458 54.778C39.2738 54.3467 38.1622 54.1615 37.0142 54.2222C36.2216 54.2678 34.9643 54.5806 34.1048 54.5138C32.7625 54.4075 31.654 53.8274 30.7763 52.7705C30.2509 52.1388 29.9107 51.659 29.7559 51.334C29.5828 50.9666 29.929 50.8937 30.2448 50.8238C32.1642 50.3956 33.7859 50.2984 35.4775 51.164C36.3127 51.5922 37.2997 52.3332 38.1288 52.6734C38.718 52.9163 39.3466 53.0894 40.0239 53.1957C40.0937 53.2048 40.1241 53.1775 40.1211 53.1076C40.0755 52.318 39.8994 51.5861 39.5957 50.9089C39.3193 50.2924 38.4872 49.9522 37.7158 49.5392C36.2975 48.7769 35.0736 47.7534 34.3508 46.2775C33.8801 45.3148 33.6037 44.4249 33.5187 43.608C33.5126 43.5533 33.5156 43.5017 33.5308 43.4561C33.5673 43.3316 33.6493 43.2769 33.7738 43.2921C36.0454 43.526 38.2685 44.677 39.3709 46.7452C40.0117 47.9478 40.364 49.2902 40.7953 50.5201C41.3541 52.1115 42.1164 53.3901 43.3069 54.8721C44.7251 56.6336 46.1677 58.313 47.6376 59.9135C47.6528 59.9317 47.671 59.9348 47.6892 59.9257C47.7105 59.9165 47.7196 59.9014 47.7165 59.8771C47.6497 59.1786 47.6224 58.3981 47.6346 57.5416C47.6406 57.2622 47.592 56.9403 47.4888 56.5789C47.4706 56.5121 47.4463 56.4483 47.4098 56.3876C47.0818 55.8348 46.8146 55.355 46.602 54.942C45.0683 51.9657 45.539 48.0754 48.0779 45.7673C48.3513 45.5152 48.6519 45.7156 48.7522 46.0315C49.7726 49.1869 50.4255 51.2217 49.7695 53.9823C49.2411 56.2023 48.819 57.9061 49.0528 59.8862C49.3322 62.2581 50.8355 63.7948 52.3996 65.6109C53.2074 66.5493 53.9089 67.509 54.4981 68.493C54.5072 68.5112 54.5224 68.5173 54.5437 68.5112C54.5619 68.5051 54.571 68.493 54.568 68.4717C54.4374 66.7983 54.2157 64.4963 53.9059 61.5626C53.505 57.7664 53.0373 53.5905 52.4968 49.032C52.4148 48.3274 52.2659 47.7777 52.0473 47.3769C51.6312 46.6055 50.8446 45.907 50.2281 45.251C49.4203 44.3885 48.8463 43.3863 48.5062 42.2474C48.4181 41.9498 48.2237 41.804 47.9291 41.8131C47.4371 41.8253 47.0423 41.8253 46.7386 41.8131C45.4084 41.7645 44.3455 41.2877 43.5498 40.3827C42.8301 39.5627 42.3107 38.6121 41.9918 37.534C41.9433 37.367 41.9858 37.2334 42.1194 37.1301C42.1801 37.0845 42.2834 37.0633 42.4292 37.0663C43.234 37.0845 44.0297 37.1574 44.8132 37.285C46.7508 37.5948 48.409 38.3024 49.0103 40.2005C49.1379 40.5983 49.2472 40.9597 49.3383 41.2908C49.6481 42.375 50.2251 43.2861 51.0724 44.0544C51.859 44.7681 52.5028 45.3785 53.0039 45.8827C53.013 45.8918 53.0252 45.8948 53.0373 45.8887C53.0495 45.8857 53.0556 45.8766 53.0556 45.8614C53.1254 44.5889 53.089 43.3802 52.8976 41.9862C52.6395 40.1428 52.4087 38.2568 52.6395 36.4346C52.9371 34.1296 54.0061 32.277 55.8465 30.8739C56.0196 30.7403 56.1411 30.6796 56.2079 30.6917C56.2596 30.7008 56.3051 30.7221 56.3416 30.7585C56.4418 30.8557 56.5238 30.9924 56.5845 31.1776C57.4895 33.7712 56.8275 36.0003 56.0348 38.6152C54.9567 42.1806 54.9051 45.8705 54.9537 49.6182C54.9628 49.9492 54.9749 50.1435 54.9931 50.2043C54.9962 50.2195 55.0083 50.2286 55.0235 50.2286C55.0387 50.2316 55.0509 50.2255 55.06 50.2134C55.8799 48.8012 56.955 47.7261 58.0909 46.6541C59.005 45.7916 59.5122 45.0657 59.7308 43.9572C60.153 41.8101 59.828 39.6781 61.5743 37.9926C62.5006 37.1028 63.5028 36.3951 64.5809 35.8758C64.9666 35.6906 65.0273 36.055 65.0395 36.3466C65.1458 38.6972 64.2954 41.0842 62.3943 42.5572C62.0116 42.8548 61.6077 43.1494 61.1855 43.447C61.0337 43.5563 60.9061 43.8327 60.8484 44.0453C60.727 44.4796 60.6116 45.169 60.3929 45.7004C59.8068 47.1339 58.8167 48.124 57.7416 49.196C56.2565 50.6689 55.8162 52.6369 55.8617 54.7294C55.886 55.9229 55.9559 57.1104 56.0713 58.2887C56.3446 61.0706 56.5967 63.5366 56.8305 65.6838C56.8336 65.6959 56.8396 65.702 56.8487 65.702C56.8579 65.705 56.8639 65.702 56.87 65.6929C57.5381 64.5631 58.6406 63.4121 59.254 62.3613C60.0315 61.0281 60.481 59.6098 60.5964 58.1035C60.6784 57.0466 60.4992 55.5494 60.4749 54.4469C60.4263 52.2421 61.4407 50.59 63.1049 49.3023C63.2142 49.2142 63.3236 49.2173 63.4268 49.3084C63.4845 49.357 63.5514 49.439 63.6242 49.5604C64.6902 51.252 64.8421 52.9436 64.0798 54.6383C63.7245 55.4309 63.1657 56.096 62.5704 56.8006C61.714 57.8119 61.796 58.9599 61.6381 60.199C61.6381 60.2111 61.6411 60.2202 61.6502 60.2263C61.6593 60.2294 61.6684 60.2294 61.6775 60.2233C62.5674 59.5217 63.3782 58.8111 64.1071 58.0944C64.7631 57.4505 65.4586 56.6457 65.656 55.7589C65.8169 55.0452 65.908 54.3923 65.9323 53.8001C66.0417 51.0972 66.4 48.4945 67.0074 45.995C67.4022 44.3672 68.8387 43.0583 70.3269 42.381C70.3754 42.3598 70.424 42.3537 70.4757 42.3658C70.6336 42.4023 70.7217 42.5177 70.7399 42.7151C70.9525 44.8288 70.3329 46.6814 68.8812 48.2667C68.6201 48.5522 68.3073 48.8893 67.9428 49.278C67.2959 49.9644 67.2139 51.0425 67.1745 52.0174C67.1593 52.4091 67.1198 53.5419 67.1259 54.6869C67.132 56.0839 66.7037 57.3199 65.8382 58.3981C65.8291 58.4072 65.8291 58.4193 65.8352 58.4315C65.8443 58.4436 65.8564 58.4466 65.8686 58.4406C68.9511 57.323 71.7725 55.2153 72.5681 51.8807C72.7838 50.9818 72.9508 50.016 73.2423 48.947C74.0107 46.1287 76.4099 44.5403 79.0946 43.7872C79.1827 43.7629 79.2586 43.778 79.3285 43.8388C79.3983 43.8965 79.4287 43.9724 79.4165 44.0605C79.1189 46.7361 77.977 48.95 75.9939 50.7024C75.4685 51.17 74.9218 51.6438 74.3539 52.1297C74.1868 52.2694 73.9439 52.5579 73.625 52.9892C73.6129 53.0044 73.6037 53.0196 73.5977 53.0347L72.6623 55.191C72.6592 55.2001 72.6623 55.2092 72.6653 55.2153C72.6714 55.2214 72.6805 55.2244 72.6896 55.2244C73.8558 54.9177 74.4359 54.3255 75.4685 53.4204C77.1661 51.9323 79.3345 51.9657 81.4513 52.2664C81.5303 52.2785 81.588 52.3211 81.6244 52.3939C81.6609 52.4638 81.6578 52.5367 81.6183 52.6065C81.1263 53.4812 80.5584 54.2587 79.9146 54.9389C78.9579 55.9533 77.7158 56.2722 76.3097 56.1628C75.6446 56.1112 75.183 56.0808 74.9218 56.0687C73.5035 56.011 72.2219 56.4058 71.077 57.2622C69.5858 58.3707 68.201 59.3547 66.4547 60.0411C65.2733 60.5027 64.101 60.5786 63.0745 61.4077C61.0823 63.0173 59.2358 65.0369 58.2275 67.3541C58.103 67.6396 58.0028 68.0405 57.9329 68.5537C57.7143 70.1481 57.5169 71.8245 57.3377 73.5829C57.3377 73.6012 57.3438 73.6133 57.362 73.6164C57.3802 73.6224 57.3924 73.6164 57.3984 73.5981C57.8752 72.523 58.4705 71.5573 59.1842 70.7009C60.5994 68.9971 62.5036 68.1771 64.6659 67.5363C66.3545 67.0352 67.7697 66.5827 68.9116 66.1818C70.4271 65.6473 71.6662 64.8061 72.635 63.6611C73.6341 62.4706 74.7365 61.4533 75.9453 60.7669C77.813 59.71 79.9207 59.4671 82.1164 59.4246C82.2591 59.4215 82.3442 59.4914 82.3715 59.628C82.3897 59.7252 82.3715 59.8406 82.3077 59.9742C81.2934 62.1548 79.21 63.8403 76.7683 64.1197C76.1913 64.1835 75.4411 64.2533 74.524 64.3293C73.7222 64.3961 73.1361 65.0096 72.7018 65.6564C72.6623 65.7172 72.6684 65.7718 72.723 65.8204C73.0875 66.1423 73.3517 66.2183 73.8771 66.112C74.448 65.9935 74.9461 65.8872 75.3713 65.7901C76.8655 65.459 78.2898 65.5835 79.6473 66.1697C80.3337 66.4643 81.1051 66.8712 81.9585 67.3936C82.0648 67.4574 82.0951 67.5454 82.0496 67.6608C81.9888 67.8157 81.7823 67.9159 81.6851 67.9919C79.6656 69.5589 77.072 69.5802 74.7882 68.575C74.1352 68.2865 73.2089 67.6183 72.4436 67.4574C71.6054 67.2812 70.8887 67.3025 70.2874 67.5181C68.2739 68.247 66.4122 68.8878 64.7054 69.4405C63.6698 69.7746 62.944 70.0813 62.5309 70.3577C60.5842 71.6727 59.4848 73.8046 58.8167 75.9973C57.7143 79.6053 57.5078 83.1464 57.3711 87.1491C57.3407 88.039 57.365 88.9592 57.447 89.9037C57.5138 90.7085 57.8479 91.3402 58.4492 91.7957C60.4627 93.3294 62.9683 94.1402 65.4616 95.0088C65.4859 95.0179 65.5284 95.0483 65.5861 95.0939C65.5922 95.0999 65.5952 95.109 65.5892 95.1182C65.5861 95.1242 65.5801 95.1303 65.5709 95.1303H65.574ZM54.1671 41.7676C54.4222 40.3523 54.7988 38.9189 55.2999 37.4672C55.8739 35.809 56.1897 34.1235 55.7342 32.4106C55.7281 32.3985 55.722 32.3894 55.7068 32.3863C55.6947 32.3833 55.6825 32.3863 55.6734 32.3954C53.1922 34.9556 53.3562 38.5393 54.1246 41.7676C54.1276 41.7797 54.1337 41.7888 54.1458 41.7858C54.161 41.7858 54.1671 41.7797 54.1671 41.7676ZM61.1278 42.2778C61.9357 41.8222 62.5765 41.2239 63.0563 40.4768C63.5999 39.6295 63.8156 38.4785 63.9644 37.4459C63.9674 37.4277 63.9613 37.4156 63.9462 37.4065C63.931 37.3943 63.9158 37.3943 63.9006 37.4034C62.4793 38.2447 61.4072 39.2044 61.1825 40.9051C61.1157 41.4335 61.0732 41.8769 61.061 42.2353C61.058 42.2869 61.0823 42.3021 61.1278 42.2778ZM48.0597 40.7411C47.2853 38.5544 45.6119 38.2325 43.4921 38.1141C43.4405 38.111 43.4223 38.1353 43.4435 38.1839C44.1542 39.751 45.2444 40.8595 47.0666 40.8838C47.5283 40.8868 47.8411 40.8747 48.0051 40.8382C48.0597 40.8291 48.0779 40.7957 48.0597 40.7411ZM67.4964 48.3457C67.4934 48.3578 67.4994 48.3639 67.5085 48.37C67.5146 48.373 67.5237 48.373 67.5298 48.3669C68.9359 47.1612 69.6952 45.6397 69.8075 43.8054C69.8075 43.7963 69.8015 43.7872 69.7923 43.7811C69.7832 43.775 69.7711 43.775 69.762 43.7811C68.0704 44.9169 67.709 46.4445 67.4934 48.3457H67.4964ZM36.3704 47.3526C37.0446 48.0814 37.9162 48.6554 38.9852 49.0776C38.9974 49.0836 39.0095 49.0836 39.0217 49.0715C39.0338 49.0624 39.0369 49.0502 39.0338 49.0351C38.8395 47.9964 38.4355 46.9304 37.6945 46.1287C36.9535 45.3269 35.9209 44.841 34.9005 44.5646C34.8853 44.5585 34.8732 44.5646 34.8641 44.5737C34.8549 44.5828 34.8519 44.595 34.8549 44.6102C35.1921 45.7096 35.6962 46.6237 36.3704 47.3526ZM73.9317 51.164C75.9361 49.5847 77.6095 47.9235 78.0772 45.2935C78.0803 45.2844 78.0772 45.2753 78.0681 45.2662C78.059 45.2601 78.0499 45.2601 78.0408 45.2631C77.0659 45.6458 76.2186 46.2016 75.4958 46.9274C74.3508 48.0845 74.1322 49.4997 73.8892 51.1397C73.8862 51.1518 73.8923 51.1609 73.9014 51.167C73.9105 51.1731 73.9196 51.1731 73.9317 51.164ZM46.7781 51.5072C46.7994 52.9072 47.2549 54.2556 48.1478 55.5494C48.1539 55.5646 48.1691 55.5706 48.1842 55.5676C48.2025 55.5646 48.2116 55.5554 48.2177 55.5403C48.6368 54.2708 48.9617 52.8009 48.9435 51.4768C48.9253 50.1496 48.5548 48.6888 48.0992 47.4315C48.0931 47.4194 48.084 47.4103 48.0688 47.4072C48.0537 47.4072 48.0415 47.4133 48.0324 47.4255C47.176 48.7435 46.7599 50.1041 46.7812 51.5041L46.7781 51.5072ZM61.6684 56.2114C61.6715 56.2297 61.6806 56.2448 61.7018 56.2509C61.7201 56.257 61.7352 56.2509 61.7504 56.2357C61.963 56.011 62.1847 55.765 62.4155 55.4947C63.6668 54.04 63.9158 52.3909 62.9622 50.6416C62.9379 50.593 62.9045 50.59 62.868 50.6295C61.3526 52.1874 61.304 54.1949 61.6654 56.2114H61.6684ZM36.8381 53.1805C35.9027 52.5306 34.9461 51.8017 33.9712 51.5314C33.1117 51.2915 32.2067 51.2885 31.2561 51.5193C31.2136 51.5314 31.2045 51.5557 31.2258 51.5952C31.8089 52.6035 32.6228 53.2322 33.6645 53.4781C34.5847 53.6938 35.8177 53.4083 36.8229 53.2413C36.8381 53.2382 36.8472 53.2291 36.8502 53.2139C36.8533 53.1987 36.8502 53.1866 36.8381 53.1805ZM75.1496 55.106C75.6325 55.2396 76.1244 55.3125 76.6316 55.3277C78.0772 55.3641 79.3862 54.4105 80.0907 53.1623C80.1241 53.1076 80.109 53.0742 80.0421 53.0651C79.4347 52.977 78.8304 52.9801 78.226 53.0803C76.9657 53.2868 76.0576 54.2222 75.1374 55.0513C75.1283 55.0604 75.1253 55.0695 75.1283 55.0817C75.1314 55.0969 75.1374 55.1029 75.1496 55.106ZM37.4121 62.826C36.9596 62.4615 36.416 62.0485 35.7782 61.5899C34.4541 60.6363 32.9659 60.1686 31.3199 60.1959C31.2895 60.1959 31.2835 60.2081 31.2926 60.2354C31.988 61.757 33.1117 62.665 34.6606 62.9566C35.4866 63.1145 36.498 62.99 37.3908 62.8958C37.406 62.8958 37.4182 62.8837 37.4242 62.8685C37.4273 62.8533 37.4242 62.8381 37.4121 62.826ZM74.4298 63.5518C75.5626 63.403 76.7288 63.3696 77.6399 63.0477C78.9154 62.5921 79.9267 61.7478 80.6738 60.5148C80.6829 60.4996 80.6829 60.4814 80.6738 60.4632C80.6617 60.448 80.6495 60.4389 80.6283 60.4419C79.8842 60.4845 79.1614 60.6059 78.4599 60.8033C76.9262 61.2346 75.514 62.3309 74.3994 63.4911C74.3873 63.5032 74.3873 63.5154 74.3934 63.5305C74.4025 63.5457 74.4146 63.5518 74.4298 63.5518ZM36.416 67.4088C35.8511 67.263 35.1951 67.0504 34.448 66.7649C33.0479 66.2274 31.7147 66.3519 30.4544 67.1324C30.421 67.1537 30.421 67.178 30.4544 67.1992C32.3221 68.575 34.4024 68.5355 36.4281 67.4938C36.4494 67.4847 36.4585 67.4695 36.4554 67.4482C36.4524 67.427 36.4403 67.4148 36.419 67.4088H36.416ZM80.2001 67.6517C79.1614 66.9563 77.7371 66.3428 76.4524 66.5888C75.4927 66.774 74.7608 66.9077 74.2506 66.9897C74.2294 66.9927 74.2172 67.0048 74.2111 67.0231C74.2081 67.0443 74.2142 67.0595 74.2294 67.0747C75.9604 68.414 78.2412 68.7541 80.194 67.7368C80.2426 67.7064 80.2426 67.6791 80.194 67.6517H80.2001Z" fill="#07306D"/>
</g>
<mask id="mask3_4735_6336" style="mask-type:luminance" maskUnits="userSpaceOnUse" x="89" y="0" width="110" height="96">
<path d="M89.6562 0H198.113V95.0452H89.6562V0Z" fill="white"/>
</mask>
<g mask="url(#mask3_4735_6336)">
<path d="M143.628 0.118528C143.173 0.170157 142.748 0.376672 142.426 0.701628L90.4569 52.6734C89.6703 53.4661 89.6764 54.7447 90.4721 55.5312C90.8486 55.9017 91.3558 56.1113 91.8873 56.1143H102.863V93.0774C102.866 94.1889 103.768 95.0879 104.876 95.0909H182.833C183.944 95.0879 184.843 94.1889 184.846 93.0774V56.1143H195.825C196.942 56.1113 197.841 55.2032 197.838 54.0856C197.835 53.5572 197.626 53.05 197.255 52.6734L184.588 40.0062V22.659C184.582 21.5505 183.683 20.6515 182.571 20.6455H173.998C172.89 20.6515 171.988 21.5505 171.985 22.659V27.4027L145.283 0.701628C144.849 0.264303 144.239 0.0486783 143.628 0.118528Z" fill="#E2BC2C"/>
</g>
<mask id="mask4_4735_6336" style="mask-type:luminance" maskUnits="userSpaceOnUse" x="116" y="31" width="54" height="53">
<path d="M116.188 31.2717H169.493V83.1312H116.188V31.2717Z" fill="white"/>
</mask>
<g mask="url(#mask4_4735_6336)">
<path fill-rule="evenodd" clip-rule="evenodd" d="M165.043 47.5955C165.699 45.8766 166.923 44.3247 168.715 42.9428C169.49 39.669 168.867 36.6988 166.844 34.0324L164.503 40.5072C164.503 40.5072 163.13 40.0152 160.385 39.0251C160.385 39.0251 161.117 36.7869 162.583 32.3104C158.098 33.8684 153.148 40.1883 158.116 44.4188C158.681 45.0596 159.121 45.8128 159.44 46.6844V67.0473C158.784 68.7663 157.56 70.3151 155.771 71.7C154.994 74.9739 155.617 77.944 157.639 80.6105L159.981 74.1357C159.981 74.1357 161.353 74.6276 164.102 75.6147C164.102 75.6147 163.367 77.8559 161.9 82.3325C166.389 80.7745 171.336 74.4545 166.367 70.224C165.806 69.5832 165.362 68.8301 165.043 67.9584V47.5955ZM120.388 59.8862H116.188V61.766C116.585 62.1031 116.913 62.5101 117.153 62.9656C117.463 63.5487 117.63 64.2047 117.63 64.882C117.63 65.5562 117.463 66.2152 117.153 66.7983C116.913 67.2508 116.585 67.6578 116.188 67.9979V78.7458C116.188 79.8725 116.649 80.899 117.393 81.6431L117.43 81.6825C118.171 82.4023 119.179 82.8487 120.29 82.8487C121.42 82.8487 122.447 82.3871 123.188 81.6461V81.6431C123.932 80.899 124.393 79.8725 124.393 78.7458V67.9979C123.996 67.6608 123.668 67.2508 123.428 66.7983C123.118 66.2152 122.951 65.5592 122.951 64.882C122.951 64.2047 123.118 63.5487 123.428 62.9656C123.668 62.5131 123.996 62.1062 124.393 61.766V59.8892H120.388V59.8862ZM121.01 68.7298C121.01 68.2864 121.369 67.925 121.815 67.925C122.258 67.925 122.62 68.2864 122.62 68.7298V79.6569C122.62 80.1003 122.258 80.4617 121.815 80.4617C121.369 80.4617 121.01 80.1003 121.01 79.6569V68.7298ZM117.961 68.7298C117.961 68.2864 118.322 67.925 118.766 67.925C119.209 67.925 119.571 68.2864 119.571 68.7298V79.6569C119.571 80.1003 119.209 80.4617 118.766 80.4617C118.322 80.4617 117.961 80.1003 117.961 79.6569V68.7298ZM120.998 39.4412L122.374 36.8962L120.971 31.4783H120.388L120.297 31.4752L119.395 31.4783L117.995 36.8962L119.343 39.3957C119.422 39.5202 119.467 39.6659 119.467 39.8239V58.2796H120.898V39.8208C120.901 39.6933 120.931 39.5627 120.998 39.4412ZM138.442 45.5364L137.41 74.2298C137.352 75.8212 138.032 76.8386 138.934 77.288C139.311 77.4763 139.727 77.5735 140.146 77.5735V77.5705C140.568 77.5705 140.984 77.4763 141.355 77.288C142.257 76.8386 142.934 75.8242 142.88 74.2298L141.844 45.5364H138.442ZM135.688 36.3465C133.331 36.5227 131.448 37.5674 130.106 39.0889C129.067 40.2642 128.345 41.7281 127.968 43.2982C130.303 41.2239 132.611 40.2126 134.892 40.2642C135.202 40.2521 135.506 40.4252 135.645 40.7228L137.17 43.9268H143.241L144.468 42.4023C144.614 42.1927 144.857 42.0561 145.13 42.0561H147.238C147.432 42.0591 147.629 42.1289 147.781 42.2717L149.045 43.4318H151.337C151.325 41.23 151.325 39.0434 151.337 36.8416H149.045L147.821 37.9683C147.675 38.1201 147.468 38.2173 147.238 38.2173L145.13 38.2143C144.896 38.2143 144.662 38.111 144.504 37.9167L143.241 36.3465H135.688Z" fill="white"/>
</g>
</svg>
