<svg width="26" height="21" viewBox="0 0 26 21" fill="none" xmlns="http://www.w3.org/2000/svg">
<path d="M25.3846 4.48682V16.5001C25.3847 17.4713 25.0136 18.4059 24.3473 19.1125C23.681 19.8191 22.7699 20.2445 21.8003 20.3014L21.5769 20.3078H3.80769C2.83646 20.3078 1.90192 19.9368 1.19528 19.2705C0.488645 18.6042 0.0633251 17.693 0.0063463 16.7235L0 16.5001V4.48682L11.9879 12.4792L12.1351 12.5629C12.3086 12.6477 12.4992 12.6918 12.6923 12.6918C12.8854 12.6918 13.076 12.6477 13.2495 12.5629L13.3967 12.4792L25.3846 4.48682Z" fill="#07306D"/>
<path d="M21.5785 0C22.9493 0 24.1513 0.723462 24.8214 1.81119L12.6939 9.89619L0.566406 1.81119C0.884641 1.29432 1.32187 0.861048 1.84161 0.547524C2.36135 0.234 2.94854 0.0493175 3.55418 0.00888458L3.80929 0H21.5785Z" fill="#07306D"/>
</svg>
