<svg width="104" height="105" viewBox="0 0 104 105" fill="none" xmlns="http://www.w3.org/2000/svg">
<path fill-rule="evenodd" clip-rule="evenodd" d="M89.3211 33.8222C90.4533 30.8555 92.5656 28.1771 95.6582 25.7922C96.9948 20.1418 95.9202 15.0155 92.4293 10.4134L88.3881 21.5884C88.3881 21.5884 86.0189 20.7393 81.2805 19.0305C81.2805 19.0305 82.5438 15.1675 85.0754 7.44143C77.3336 10.1304 68.7899 21.0381 77.3651 28.3396C78.34 29.4455 79.1 30.7454 79.6504 32.2498V67.3945C78.5182 70.3612 76.4059 73.0344 73.3186 75.4246C71.9768 81.075 73.0513 86.2012 76.5422 90.8033L80.5834 79.6283C80.5834 79.6283 82.9526 80.4774 87.6962 82.181C87.6962 82.181 86.4278 86.0492 83.8961 93.7753C91.6431 91.0864 100.182 80.1787 91.6064 72.8772C90.6367 71.7712 89.8715 70.4713 89.3211 68.967V33.8222ZM12.2491 55.0349H5V58.2794C5.68665 58.8612 6.25273 59.5636 6.66682 60.3498C7.20146 61.3562 7.48974 62.4884 7.48974 63.6573C7.48974 64.8209 7.20146 65.9583 6.66682 66.9647C6.25273 67.7457 5.68665 68.448 5 69.0351V87.585C5 89.5296 5.79672 91.3013 7.0809 92.5855L7.1438 92.6536C8.42274 93.8959 10.1629 94.6664 12.0814 94.6664C14.0312 94.6664 15.8029 93.8696 17.0818 92.5907V92.5855C18.366 91.3013 19.1627 89.5296 19.1627 87.585V69.0351C18.4761 68.4533 17.91 67.7457 17.4959 66.9647C16.9613 65.9583 16.673 64.8261 16.673 63.6573C16.673 62.4884 16.9613 61.3562 17.4959 60.3498C17.91 59.5688 18.4761 58.8665 19.1627 58.2794V55.0401H12.2491V55.0349ZM13.3236 70.2983C13.3236 69.533 13.9421 68.9093 14.7126 68.9093C15.4779 68.9093 16.1016 69.533 16.1016 70.2983V89.1575C16.1016 89.9227 15.4779 90.5465 14.7126 90.5465C13.9421 90.5465 13.3236 89.9227 13.3236 89.1575V70.2983ZM8.06108 70.2983C8.06108 69.533 8.68482 68.9093 9.45009 68.9093C10.2154 68.9093 10.8391 69.533 10.8391 70.2983V89.1575C10.8391 89.9227 10.2154 90.5465 9.45009 90.5465C8.68482 90.5465 8.06108 89.9227 8.06108 89.1575V70.2983ZM13.3026 19.7486L15.6771 15.3562L13.2555 6.00524H12.2491L12.0918 6L10.5351 6.00524L8.11873 15.3562L10.446 19.67C10.5823 19.8849 10.6609 20.1365 10.6609 20.4091V52.2621H13.1297V20.4038C13.1349 20.1837 13.1873 19.9583 13.3026 19.7486ZM43.4102 30.2685L41.6281 79.7908C41.5285 82.5374 42.7026 84.2933 44.2593 85.0691C44.9093 85.394 45.6274 85.5618 46.3507 85.5618V85.5565C47.0793 85.5565 47.7974 85.394 48.4369 85.0691C49.9936 84.2933 51.1625 82.5426 51.0681 79.7908L49.2808 30.2685H43.4102ZM38.6561 14.4075C34.5886 14.7115 31.3389 16.5146 29.0221 19.1406C27.2295 21.1691 25.982 23.6955 25.332 26.4054C29.3628 22.8254 33.3464 21.08 37.2828 21.1691C37.8175 21.1481 38.3416 21.4469 38.5827 21.9606L41.214 27.4904H51.6919L53.8095 24.8592C54.0611 24.4975 54.4804 24.2616 54.9521 24.2616H58.5898C58.9252 24.2669 59.266 24.3874 59.528 24.6338L61.7085 26.6361H65.6659C65.6449 22.8359 65.6449 19.062 65.6659 15.2619H61.7085L59.5962 17.2065C59.3446 17.4686 58.9881 17.6363 58.5898 17.6363L54.9521 17.631C54.5485 17.631 54.1449 17.4528 53.8724 17.1174L51.6919 14.4075H38.6561Z" fill="#07306D"/>
</svg>
