<svg width="31" height="27" viewBox="0 0 31 27" fill="none" xmlns="http://www.w3.org/2000/svg">
<path d="M16.0029 6.33393C12.3197 6.32232 9.32672 9.30436 9.31511 12.9884C9.30351 16.6724 12.2849 19.6661 15.9681 19.6777C19.6513 19.6893 22.6443 16.7072 22.6559 13.0232C22.6675 9.33917 19.6861 6.34553 16.0029 6.33393ZM15.9681 8.67779C18.3578 8.66618 20.3009 10.5981 20.3125 12.9884C20.3242 15.3787 18.3926 17.3222 16.0029 17.3338C13.6132 17.3454 11.67 15.4135 11.6584 13.0232C11.6468 10.6329 13.5784 8.68939 15.9681 8.67779ZM21.3856 6.06125C21.3856 5.20261 22.0817 4.50641 22.9401 4.50641C23.7985 4.50641 24.4946 5.20261 24.4946 6.06125C24.4946 6.91989 23.7985 7.61609 22.9401 7.61609C22.0817 7.61609 21.3856 6.91989 21.3856 6.06125ZM28.9086 7.63929C28.81 5.55651 28.3344 3.71159 26.8089 2.19157C25.2892 0.671539 23.4447 0.195805 21.3624 0.0913756C19.2163 -0.0304585 12.7837 -0.0304585 10.6376 0.0913756C8.56107 0.190003 6.71656 0.665737 5.19108 2.18576C3.66559 3.70579 3.19576 5.55071 3.09136 7.63349C2.96955 9.7801 2.96955 16.2141 3.09136 18.3607C3.18996 20.4435 3.66559 22.2884 5.19108 23.8084C6.71656 25.3285 8.55527 25.8042 10.6376 25.9086C12.7837 26.0305 19.2163 26.0305 21.3624 25.9086C23.4447 25.81 25.2892 25.3343 26.8089 23.8084C28.3286 22.2884 28.8042 20.4435 28.9086 18.3607C29.0305 16.2141 29.0305 9.7859 28.9086 7.63929ZM26.1361 20.6639C25.6837 21.8011 24.8078 22.6771 23.6651 23.1354C21.954 23.8142 17.8938 23.6576 16.0029 23.6576C14.112 23.6576 10.046 23.8084 8.34066 23.1354C7.20379 22.6829 6.32794 21.8069 5.86972 20.6639C5.19108 18.9525 5.34769 14.8913 5.34769 13C5.34769 11.1087 5.19688 7.04173 5.86972 5.33605C6.32214 4.19893 7.19799 3.32288 8.34066 2.86455C10.0518 2.18576 14.112 2.34241 16.0029 2.34241C17.8938 2.34241 21.9598 2.19156 23.6651 2.86455C24.802 3.31708 25.6779 4.19313 26.1361 5.33605C26.8147 7.04753 26.6581 11.1087 26.6581 13C26.6581 14.8913 26.8147 18.9583 26.1361 20.6639Z" fill="#07306D"/>
</svg>
