<svg width="31" height="27" viewBox="0 0 31 27" fill="none" xmlns="http://www.w3.org/2000/svg">
<path d="M10.8189 2.22139C10.4332 1.29847 9.42725 0.810151 8.47017 1.06896L8.2016 1.14221C5.04713 2.00164 2.35167 5.05851 3.13785 8.77948C4.94947 17.325 11.6735 24.0491 20.2189 25.8608C23.9446 26.6519 26.9966 23.9515 27.856 20.797L27.9292 20.5284C28.1929 19.5664 27.6997 18.5605 26.7817 18.1796L22.0305 16.2019C21.2248 15.865 20.2921 16.0993 19.7354 16.7781L17.8506 19.083C14.4178 17.3787 11.6539 14.527 10.0669 11.0257L12.2253 9.2678C12.904 8.716 13.1335 7.78331 12.8015 6.97271L10.8189 2.22139Z" fill="#07306D"/>
</svg>
