<svg width="31" height="27" viewBox="0 0 31 27" fill="none" xmlns="http://www.w3.org/2000/svg">
<path d="M28.3846 7.48682V19.5001C28.3847 20.4713 28.0136 21.4059 27.3473 22.1125C26.681 22.8191 25.7699 23.2445 24.8003 23.3014L24.5769 23.3078H6.80769C5.83646 23.3078 4.90192 22.9368 4.19528 22.2705C3.48865 21.6042 3.06333 20.693 3.00635 19.7235L3 19.5001V7.48682L14.9879 15.4792L15.1351 15.5629C15.3086 15.6477 15.4992 15.6918 15.6923 15.6918C15.8854 15.6918 16.076 15.6477 16.2495 15.5629L16.3967 15.4792L28.3846 7.48682Z" fill="#07306D"/>
<path d="M24.5785 3C25.9493 3 27.1513 3.72346 27.8214 4.81119L15.6939 12.8962L3.56641 4.81119C3.88464 4.29432 4.32187 3.86105 4.84161 3.54752C5.36135 3.234 5.94854 3.04932 6.55418 3.00888L6.80929 3H24.5785Z" fill="#07306D"/>
</svg>
