<svg width="104" height="105" viewBox="0 0 104 105" fill="none" xmlns="http://www.w3.org/2000/svg">
<mask id="mask0_2519_412" style="mask-type:luminance" maskUnits="userSpaceOnUse" x="10" y="2" width="84" height="101">
<path d="M10 2H94V102.8H10V2Z" fill="white"/>
</mask>
<g mask="url(#mask0_2519_412)">
<path d="M67.7807 102.36C64.801 101.783 62.2186 101.315 60.0429 100.955C55.1902 100.161 51.3733 99.5602 47.1165 100.492C42.9828 101.391 40.2253 102.1 36.626 102.119C36.6166 102.119 36.6118 102.119 36.6118 102.114C36.6071 102.11 36.6071 102.105 36.6071 102.1L36.6355 102.034C36.6449 102.02 36.6544 102.01 36.6686 102.01C39.7051 101.618 42.524 100.78 45.1301 99.494C48.6963 97.7345 49.9307 94.9298 50.0915 91.094C50.3801 84.2832 50.6875 78.7163 50.6165 72.9886C50.6165 72.8041 50.5882 72.6291 50.5409 72.4494C49.5665 68.9068 46.7665 66.5041 43.6591 64.792C40.8497 63.2501 37.8888 61.9825 34.772 60.9845C32.4307 60.242 30.1274 59.9298 27.8571 60.0528C25.6672 60.171 23.6429 60.7102 21.4199 61.3582C18.8375 62.1149 16.1084 62.1339 13.6206 60.9325C12.5895 60.4359 11.5017 59.8068 10.3476 59.0501C10.2625 58.9886 10.1963 58.9271 10.1584 58.8609C10.1111 58.7805 10.097 58.6954 10.1206 58.6055C10.1443 58.5109 10.1963 58.4447 10.2767 58.3926C11.7334 57.5224 13.2139 56.8697 14.7132 56.4345C17.2341 55.7062 19.4145 56.5906 22.1909 57.6406C23.4064 58.1041 24.6078 58.1231 26.1213 57.9055C27.4314 57.7258 28.7321 57.6264 30.0233 57.6217C30.047 57.6217 30.0611 57.6122 30.0706 57.5933C30.0753 57.5744 30.0753 57.5555 30.0611 57.5413C29.503 56.8886 28.9828 56.1649 28.5098 55.3751C27.9706 54.4764 26.476 53.8805 25.4591 53.6866C24.3807 53.4832 22.9193 53.7102 21.4814 53.7859C18.6436 53.9325 16.3071 53.0433 14.4672 51.1231C13.3652 49.969 12.5848 48.7203 12.1355 47.3676C12.0314 47.0602 12.003 46.8332 12.0503 46.6818C12.1355 46.4264 12.3105 46.2987 12.5848 46.294C16.0611 46.2089 19.4382 46.9278 22.4274 48.919C24.3003 50.1676 26.1875 51.4399 28.0983 52.7312C29.1672 53.4501 29.8199 54.046 30.8557 55.1008C32.6483 56.9217 34.7814 57.9481 37.1841 58.842C40.9017 60.2278 44.1132 61.3724 47.1402 63.2926C47.1591 63.3068 47.178 63.3068 47.197 63.2879C47.2111 63.269 47.2159 63.2501 47.2064 63.2312C45.3618 60.0149 43.2382 56.7609 40.8449 53.4643C40.1402 52.4947 39.199 51.3643 38.0166 50.0589C35.6564 47.4575 33.249 44.4589 30.7943 41.0676C30.3686 40.4764 29.6024 39.9562 28.4909 39.5163C26.8213 38.8447 25.0902 38.5562 23.3024 38.6508C22.0679 38.7217 20.1098 39.2089 18.7713 39.1048C16.6807 38.9393 14.9544 38.0359 13.5875 36.3899C12.7693 35.4062 12.2395 34.6589 11.9983 34.1528C11.7287 33.5805 12.2679 33.467 12.7598 33.3582C15.749 32.6913 18.2747 32.5399 20.9091 33.8879C22.2098 34.5548 23.747 35.7089 25.0382 36.2386C25.9557 36.617 26.9348 36.8866 27.9895 37.0521C28.0983 37.0663 28.1456 37.0237 28.1409 36.9149C28.0699 35.6852 27.7956 34.5453 27.3226 33.4906C26.8922 32.5305 25.5963 32.0008 24.3949 31.3575C22.1861 30.1703 20.2801 28.5764 19.1544 26.2778C18.4213 24.7785 17.9909 23.3926 17.8584 22.1203C17.849 22.0352 17.8537 21.9548 17.8774 21.8839C17.9341 21.6899 18.0618 21.6048 18.2557 21.6285C21.7936 21.9926 25.2557 23.7852 26.9726 27.0062C27.9706 28.8791 28.5193 30.9697 29.1909 32.8852C30.0611 35.3636 31.2483 37.3548 33.1024 39.6629C35.3111 42.4062 37.5578 45.0217 39.847 47.5143C39.8706 47.5426 39.899 47.5474 39.9274 47.5332C39.9605 47.519 39.9747 47.4954 39.9699 47.4575C39.8659 46.3697 39.8233 45.1541 39.8422 43.8203C39.8517 43.3852 39.776 42.8839 39.6152 42.321C39.5868 42.217 39.549 42.1176 39.4922 42.0231C38.9814 41.1622 38.5652 40.4149 38.2341 39.7717C35.8456 35.1366 36.5787 29.0778 40.5328 25.4832C40.9584 25.0906 41.4267 25.4028 41.5828 25.8947C43.172 30.8089 44.1888 33.9778 43.1672 38.2771C42.3443 41.7345 41.6868 44.3879 42.051 47.4717C42.4861 51.1656 44.8274 53.5589 47.2632 56.3872C48.5213 57.8487 49.6138 59.3433 50.5314 60.8758C50.5456 60.9041 50.5693 60.9136 50.6024 60.9041C50.6307 60.8947 50.6449 60.8758 50.6402 60.8426C50.4368 58.2366 50.0915 54.6514 49.6091 50.0825C48.9848 44.1704 48.2564 37.667 47.4145 30.5676C47.2868 29.4703 47.0551 28.6143 46.7145 27.9899C46.0665 26.7886 44.8416 25.7008 43.8814 24.6791C42.6233 23.3359 41.7294 21.7751 41.1997 20.0014C41.0625 19.5379 40.7598 19.3109 40.301 19.3251C39.5348 19.344 38.9199 19.344 38.447 19.3251C36.3753 19.2494 34.7199 18.5068 33.4807 17.0974C32.3598 15.8203 31.551 14.3399 31.0544 12.6609C30.9787 12.4008 31.0449 12.1926 31.253 12.0318C31.3476 11.9609 31.5084 11.9278 31.7355 11.9325C32.9888 11.9609 34.228 12.0744 35.4483 12.2731C38.4659 12.7555 41.0483 13.8575 41.9848 16.8136C42.1834 17.4332 42.3537 17.996 42.4956 18.5116C42.978 20.2001 43.8767 21.619 45.1963 22.8156C46.4213 23.9271 47.424 24.8778 48.2044 25.6629C48.2186 25.6771 48.2375 25.6818 48.2564 25.6724C48.2753 25.6676 48.2848 25.6535 48.2848 25.6298C48.3936 23.6481 48.3368 21.7656 48.0388 19.5947C47.6368 16.7237 47.2774 13.7866 47.6368 10.9487C48.1003 7.35886 49.7652 4.47373 52.6314 2.28859C52.901 2.08048 53.0902 1.98589 53.1943 2.00481C53.2747 2.019 53.3456 2.0521 53.4024 2.10886C53.5584 2.26021 53.6861 2.47305 53.7807 2.76156C55.1902 6.80075 54.1591 10.2724 52.9247 14.3447C51.2456 19.8974 51.1652 25.644 51.2409 31.4805C51.2551 31.996 51.274 32.2987 51.3024 32.3933C51.3071 32.417 51.326 32.4312 51.3497 32.4312C51.3733 32.4359 51.3922 32.4264 51.4064 32.4075C52.6834 30.2082 54.3578 28.5339 56.1267 26.8643C57.5503 25.521 58.3402 24.3906 58.6807 22.6643C59.3382 19.3203 58.8321 16.0001 61.5517 13.3751C62.9942 11.9893 64.5551 10.8872 66.2341 10.0785C66.8348 9.78994 66.9294 10.3575 66.9483 10.8116C67.1138 14.4724 65.7895 18.1899 62.8287 20.4839C62.2328 20.9474 61.6037 21.4062 60.9463 21.8697C60.7098 22.0399 60.5111 22.4703 60.4213 22.8014C60.2321 23.4778 60.0524 24.5514 59.7118 25.3791C58.799 27.6116 57.2571 29.1535 55.5828 30.8231C53.2699 33.117 52.5841 36.1818 52.6551 39.4406C52.6929 41.2994 52.8017 43.1487 52.9814 44.9839C53.4071 49.3163 53.7997 53.1568 54.1638 56.5008C54.1686 56.5197 54.178 56.5291 54.1922 56.5291C54.2064 56.5339 54.2159 56.5291 54.2253 56.5149C55.2659 54.7555 56.9828 52.9629 57.9382 51.3264C59.149 49.2501 59.849 47.0413 60.0287 44.6953C60.1564 43.0494 59.8774 40.7176 59.8395 39.0008C59.7638 35.567 61.3436 32.994 63.9355 30.9886C64.1057 30.8514 64.276 30.8562 64.4368 30.9981C64.5267 31.0737 64.6307 31.2014 64.7443 31.3906C66.4044 34.0251 66.6409 36.6595 65.4537 39.2987C64.9003 40.5332 64.0301 41.569 63.103 42.6663C61.7692 44.2413 61.897 46.0291 61.651 47.9589C61.651 47.9778 61.6557 47.992 61.6699 48.0014C61.6841 48.0062 61.6983 48.0062 61.7125 47.9967C63.0983 46.9041 64.3611 45.7974 65.4963 44.6812C66.5179 43.6785 67.601 42.4251 67.9084 41.044C68.1591 39.9325 68.301 38.9156 68.3388 37.9933C68.5091 33.7839 69.0672 29.7305 70.0132 25.8379C70.628 23.3028 72.8652 21.2643 75.1828 20.2095C75.2584 20.1764 75.3341 20.167 75.4145 20.1859C75.6605 20.2426 75.7976 20.4224 75.826 20.7298C76.1571 24.0217 75.1922 26.9068 72.9314 29.3758C72.5247 29.8203 72.0375 30.3453 71.4699 30.9508C70.4625 32.0197 70.3348 33.6987 70.2733 35.217C70.2497 35.8271 70.1882 37.5913 70.1976 39.3744C70.2071 41.5501 69.5402 43.4751 68.1922 45.1541C68.178 45.1683 68.178 45.1872 68.1875 45.2062C68.2017 45.2251 68.2206 45.2298 68.2395 45.2203C73.0402 43.4798 77.4341 40.1974 78.6733 35.0041C79.0091 33.6041 79.2692 32.1001 79.7233 30.4352C80.9199 26.046 84.6564 23.5724 88.8375 22.3994C88.9747 22.3616 89.0929 22.3852 89.2017 22.4798C89.3105 22.5697 89.3578 22.6879 89.3388 22.8251C88.8753 26.992 87.0969 30.4399 84.0084 33.169C83.1902 33.8974 82.3388 34.6352 81.4544 35.392C81.1942 35.6095 80.8159 36.0589 80.3192 36.7305C80.3003 36.7541 80.2861 36.7778 80.2767 36.8014L78.8199 40.1595C78.8152 40.1737 78.8199 40.1879 78.8247 40.1974C78.8341 40.2068 78.8483 40.2116 78.8625 40.2116C80.6787 39.7339 81.5821 38.8116 83.1902 37.4021C85.8341 35.0845 89.2111 35.1366 92.5078 35.6048C92.6307 35.6237 92.7206 35.6899 92.7774 35.8035C92.8341 35.9122 92.8294 36.0258 92.7679 36.1345C92.0017 37.4967 91.1172 38.7075 90.1145 39.767C88.6247 41.3467 86.6902 41.8433 84.5003 41.6731C83.4645 41.5926 82.7456 41.5453 82.3388 41.5264C80.1301 41.4366 78.1341 42.0514 76.351 43.3852C74.0287 45.1116 71.872 46.644 69.1524 47.7129C67.3125 48.4318 65.4868 48.5501 63.8882 49.8413C60.7855 52.3481 57.9098 55.4933 56.3395 59.1021C56.1456 59.5467 55.9895 60.171 55.8807 60.9704C55.5402 63.4535 55.2328 66.0643 54.9537 68.8028C54.9537 68.8312 54.9632 68.8501 54.9915 68.8548C55.0199 68.8643 55.0388 68.8548 55.0483 68.8264C55.7909 67.1521 56.7179 65.6481 57.8294 64.3143C60.0334 61.6609 62.999 60.3839 66.3665 59.3859C68.9963 58.6055 71.2003 57.9008 72.9787 57.2764C75.3388 56.444 77.2686 55.1339 78.7774 53.3508C80.3334 51.4967 82.0503 49.9122 83.9328 48.8433C86.8415 47.1974 90.124 46.819 93.5436 46.7528C93.7659 46.7481 93.8983 46.8568 93.9409 47.0697C93.9692 47.221 93.9409 47.4008 93.8415 47.6089C92.2618 51.0048 89.0172 53.6298 85.2145 54.0649C84.3159 54.1643 83.1476 54.2731 81.7192 54.3913C80.4706 54.4954 79.5578 55.4508 78.8814 56.4582C78.8199 56.5528 78.8294 56.6379 78.9145 56.7136C79.4821 57.2149 79.8936 57.3332 80.7118 57.1676C81.601 56.9832 82.3767 56.8176 83.0388 56.6663C85.3659 56.1508 87.5841 56.3447 89.6983 57.2575C90.7672 57.7163 91.9686 58.3501 93.2976 59.1636C93.4632 59.2629 93.5105 59.4001 93.4395 59.5798C93.3449 59.821 93.0233 59.9771 92.8719 60.0954C89.7267 62.5359 85.6875 62.569 82.1307 61.0035C81.1138 60.5541 79.6713 59.5136 78.4794 59.2629C77.174 58.9886 76.0578 59.0217 75.1213 59.3575C71.9855 60.4926 69.0861 61.4906 66.428 62.3514C64.8152 62.8717 63.6848 63.3494 63.0415 63.7798C60.0098 65.8278 58.2976 69.1481 57.2571 72.5629C55.5402 78.1818 55.2186 83.6967 55.0057 89.9305C54.9584 91.3163 54.9963 92.7494 55.124 94.2204C55.228 95.4737 55.7483 96.4575 56.6848 97.167C59.8206 99.5555 63.7226 100.818 67.6057 102.171C67.6436 102.185 67.7098 102.233 67.7997 102.303C67.8091 102.313 67.8138 102.327 67.8044 102.341C67.7997 102.351 67.7902 102.36 67.776 102.36H67.7807ZM50.0159 19.2541C50.4132 17.0501 50.9997 14.8176 51.7801 12.5568C52.674 9.9744 53.1659 7.3494 52.4564 4.68183C52.447 4.66291 52.4375 4.64873 52.4138 4.644C52.3949 4.63927 52.376 4.644 52.3618 4.65818C48.4976 8.64535 48.753 14.2264 49.9497 19.2541C49.9544 19.2731 49.9638 19.2872 49.9828 19.2825C50.0064 19.2825 50.0159 19.2731 50.0159 19.2541ZM60.8564 20.0487C62.1145 19.3393 63.1125 18.4075 63.8598 17.244C64.7064 15.9244 65.0422 14.1318 65.274 12.5237C65.2787 12.4953 65.2692 12.4764 65.2456 12.4622C65.222 12.4433 65.1983 12.4433 65.1747 12.4575C62.9611 13.7676 61.2915 15.2622 60.9415 17.9109C60.8375 18.7339 60.7713 19.4244 60.7524 19.9825C60.7476 20.0629 60.7855 20.0866 60.8564 20.0487ZM40.5044 17.6555C39.2983 14.2501 36.6922 13.7487 33.3909 13.5643C33.3105 13.5595 33.2821 13.5974 33.3152 13.6731C34.422 16.1136 36.1199 17.8399 38.9578 17.8778C39.6767 17.8825 40.1638 17.8636 40.4193 17.8068C40.5044 17.7926 40.5328 17.7406 40.5044 17.6555ZM70.7747 29.4987C70.7699 29.5176 70.7794 29.5271 70.7936 29.5366C70.803 29.5413 70.8172 29.5413 70.8267 29.5318C73.0165 27.6541 74.199 25.2845 74.374 22.4278C74.374 22.4136 74.3645 22.3994 74.3503 22.3899C74.3361 22.3805 74.3172 22.3805 74.303 22.3899C71.6686 24.1589 71.1057 26.5379 70.7699 29.4987H70.7747ZM22.2997 27.9521C23.3497 29.0872 24.7071 29.9812 26.372 30.6386C26.3909 30.6481 26.4098 30.6481 26.4287 30.6291C26.4476 30.6149 26.4524 30.596 26.4476 30.5724C26.1449 28.9548 25.5159 27.2947 24.3618 26.046C23.2078 24.7974 21.5997 24.0406 20.0105 23.6102C19.9868 23.6008 19.9679 23.6102 19.9537 23.6244C19.9395 23.6386 19.9348 23.6575 19.9395 23.6812C20.4645 25.3933 21.2497 26.817 22.2997 27.9521ZM80.797 33.8879C83.9186 31.4285 86.5247 28.8413 87.253 24.7453C87.2578 24.7312 87.253 24.717 87.2388 24.7028C87.2247 24.6933 87.2105 24.6933 87.1963 24.6981C85.678 25.294 84.3584 26.1595 83.2328 27.2899C81.4497 29.092 81.1091 31.296 80.7307 33.8501C80.726 33.869 80.7355 33.8832 80.7497 33.8926C80.7638 33.9021 80.778 33.9021 80.797 33.8879ZM38.5084 34.4224C38.5415 36.6028 39.251 38.7028 40.6416 40.7176C40.651 40.7413 40.6747 40.7508 40.6983 40.746C40.7267 40.7413 40.7409 40.7271 40.7503 40.7035C41.403 38.7264 41.9091 36.4372 41.8807 34.3751C41.8524 32.3082 41.2753 30.0332 40.5659 28.0751C40.5564 28.0562 40.5422 28.042 40.5186 28.0372C40.4949 28.0372 40.476 28.0467 40.4618 28.0656C39.128 30.1183 38.4801 32.2372 38.5132 34.4176L38.5084 34.4224ZM61.6983 41.7487C61.703 41.7771 61.7172 41.8008 61.7503 41.8102C61.7787 41.8197 61.8024 41.8102 61.826 41.7866C62.1571 41.4366 62.5024 41.0535 62.8618 40.6325C64.8105 38.367 65.1983 35.7987 63.7132 33.0744C63.6753 32.9987 63.6233 32.994 63.5665 33.0555C61.2064 35.4818 61.1307 38.6082 61.6936 41.7487H61.6983ZM23.028 37.0285C21.5713 36.0163 20.0814 34.8812 18.5632 34.4602C17.2247 34.0866 15.8152 34.0818 14.3348 34.4413C14.2686 34.4602 14.2544 34.4981 14.2875 34.5595C15.1956 36.1298 16.4632 37.1089 18.0855 37.492C19.5186 37.8278 21.4389 37.3832 23.0044 37.1231C23.028 37.1183 23.0422 37.1041 23.047 37.0805C23.0517 37.0568 23.047 37.0379 23.028 37.0285ZM82.6936 40.0271C83.4456 40.2352 84.2118 40.3487 85.0017 40.3724C87.253 40.4291 89.2915 38.944 90.3888 37.0001C90.4409 36.9149 90.4172 36.8629 90.3132 36.8487C89.3672 36.7116 88.426 36.7163 87.4848 36.8724C85.5219 37.194 84.1078 38.6508 82.6747 39.942C82.6605 39.9562 82.6557 39.9703 82.6605 39.9893C82.6652 40.0129 82.6747 40.0224 82.6936 40.0271ZM23.922 52.0501C23.2172 51.4825 22.3706 50.8393 21.3774 50.1251C19.3152 48.6399 16.9976 47.9116 14.4341 47.9541C14.3868 47.9541 14.3774 47.9731 14.3916 48.0156C15.4747 50.3852 17.2247 51.7994 19.6368 52.2535C20.9233 52.4994 22.4983 52.3055 23.8889 52.1589C23.9125 52.1589 23.9314 52.1399 23.9409 52.1163C23.9456 52.0926 23.9409 52.069 23.922 52.0501ZM81.5726 53.1805C83.3368 52.9487 85.153 52.8967 86.572 52.3954C88.5584 51.6859 90.1334 50.371 91.2969 48.4508C91.3111 48.4271 91.3111 48.3987 91.2969 48.3704C91.278 48.3467 91.2591 48.3325 91.226 48.3372C90.0672 48.4035 88.9415 48.5926 87.849 48.9001C85.4605 49.5717 83.2611 51.2791 81.5253 53.0859C81.5064 53.1048 81.5064 53.1237 81.5159 53.1474C81.5301 53.171 81.549 53.1805 81.5726 53.1805ZM22.3706 59.1872C21.4909 58.9602 20.4693 58.6291 19.3057 58.1845C17.1253 57.3474 15.049 57.5413 13.0861 58.7568C13.0341 58.7899 13.0341 58.8278 13.0861 58.8609C15.9949 61.0035 19.2348 60.942 22.3895 59.3197C22.4226 59.3055 22.4368 59.2818 22.4321 59.2487C22.4274 59.2156 22.4084 59.1967 22.3753 59.1872H22.3706ZM90.5591 59.5656C88.9415 58.4825 86.7233 57.5271 84.7226 57.9102C83.228 58.1987 82.0882 58.4068 81.2936 58.5345C81.2605 58.5393 81.2415 58.5582 81.2321 58.5866C81.2274 58.6197 81.2368 58.6433 81.2605 58.667C83.9564 60.7528 87.5084 61.2825 90.5497 59.6981C90.6253 59.6508 90.6253 59.6082 90.5497 59.5656H90.5591Z" fill="white"/>
</g>
</svg>
