<svg width="25" height="25" viewBox="0 0 25 25" fill="none" xmlns="http://www.w3.org/2000/svg">
<path d="M7.81893 1.22139C7.43317 0.298467 6.42725 -0.189849 5.47017 0.0689584L5.2016 0.142206C2.04713 1.00164 -0.648328 4.05851 0.137848 7.77948C1.94947 16.325 8.67347 23.0491 17.2189 24.8608C20.9446 25.6519 23.9966 22.9515 24.856 19.797L24.9292 19.5284C25.1929 18.5664 24.6997 17.5605 23.7817 17.1796L19.0305 15.2019C18.2248 14.865 17.2921 15.0993 16.7354 15.7781L14.8506 18.083C11.4178 16.3787 8.65394 13.527 7.06694 10.0257L9.22526 8.2678C9.90401 7.716 10.1335 6.78331 9.80146 5.97271L7.81893 1.22139Z" fill="#07306D"/>
</svg>
