<svg width="122" height="118" viewBox="0 0 122 118" fill="none" xmlns="http://www.w3.org/2000/svg">
<g filter="url(#filter0_d_2514_603)">
<path d="M12.4932 61.333V61.3398H21.0703V64.6348C20.3609 65.2719 19.7538 66.005 19.2744 66.8125L19.0605 67.1924C18.3594 68.5124 17.9814 69.9978 17.9814 71.5303C17.9815 73.0628 18.3593 74.5482 19.0605 75.8682V75.8672C19.5674 76.8231 20.25 77.6925 21.0703 78.4248V101.215C21.0703 103.488 20.1389 105.56 18.6348 107.064L18.4883 107.211C17.0036 108.625 14.9928 109.5 12.7852 109.5C10.5467 109.5 8.51498 108.603 7.01758 107.153L6.94922 107.079L6.94238 107.072L6.93555 107.064L6.66016 106.776C5.31845 105.301 4.50001 103.346 4.5 101.215V78.4248C5.31912 77.6891 6.00098 76.8249 6.50879 75.8672L6.50977 75.8682C7.2111 74.548 7.58881 73.0561 7.58887 71.5303C7.58887 70.0933 7.25619 68.698 6.63672 67.4414L6.50977 67.1924C6.00206 66.2287 5.31976 65.3637 4.5 64.6328V61.333H12.4932ZM9.52051 77.5459C8.29521 77.5461 7.29801 78.5433 7.29785 79.7686V103.166C7.29806 104.391 8.29523 105.389 9.52051 105.389C10.7459 105.389 11.7439 104.391 11.7441 103.166V79.7686C11.744 78.5432 10.7459 77.5459 9.52051 77.5459ZM16.0498 77.5459C14.8166 77.5459 13.8263 78.5444 13.8262 79.7686V103.166C13.8264 104.39 14.8167 105.389 16.0498 105.389C17.2751 105.389 18.2723 104.391 18.2725 103.166V79.7686C18.2723 78.5432 17.2751 77.546 16.0498 77.5459ZM58.4531 30.6074L60.6523 91.5635C60.7635 94.8149 59.3923 96.7847 57.665 97.6455L57.6611 97.6475C56.9424 98.0127 56.13 98.1982 55.2998 98.1982H55.0615C54.4249 98.1696 53.796 98.0279 53.209 97.7764L52.9287 97.6465L52.6084 97.4717C51.0337 96.533 49.8302 94.6048 49.9404 91.5635L52.1338 30.6074H58.4531ZM12.9766 0.505859L12.9854 0.506836H13.8545L16.7119 11.543L13.8623 16.8154C13.6765 17.1532 13.5942 17.5131 13.5859 17.8574V56.8926H11.5225V17.876C11.5225 17.4503 11.4021 17.0555 11.1943 16.7178L8.40234 11.542L11.2539 0.504883L12.7832 0.5L12.9766 0.505859ZM61.6875 10.9307L64.2422 14.1055L64.2432 14.1074C64.6796 14.6446 65.3247 14.9284 65.9697 14.9287V14.9297L70.4834 14.9365C71.1099 14.9365 71.6704 14.6749 72.0703 14.2695L72.0713 14.2705L74.5479 11.9902H78.7607C78.7383 16.3694 78.7383 20.7224 78.7607 25.1016H74.5479L71.9863 22.749H71.9854C71.5613 22.3527 71.0174 22.1635 70.4912 22.1553H65.9707C65.2281 22.1553 64.568 22.5217 64.1641 23.083L61.6875 26.1611H49.2432L46.1143 19.5859C45.7313 18.7726 44.9078 18.2982 44.0615 18.3193C39.4283 18.2145 34.7875 20.0937 30.1455 23.875C31.0014 21.1802 32.3582 18.6916 34.1768 16.6338V16.6328C36.9643 13.4732 40.8691 11.3026 45.7686 10.9307H61.6875ZM97.1113 32.4766L97.0811 32.3936C96.3788 30.474 95.4053 28.8062 94.1514 27.3838L94.1279 27.3574L94.1006 27.334L93.6328 26.9199C91.3703 24.8359 90.2409 22.5503 89.9277 20.2441C89.5925 17.775 90.1867 15.2329 91.4131 12.833C93.7049 8.3485 98.1559 4.45797 102.54 2.63086C101.132 6.92729 100.064 10.1891 99.335 12.416C98.9429 13.6138 98.6491 14.5123 98.4531 15.1113C98.3551 15.4109 98.2814 15.6364 98.2324 15.7861C98.208 15.8608 98.189 15.9167 98.1768 15.9541C98.1707 15.9727 98.1661 15.9867 98.1631 15.9961C98.1616 16.0007 98.1609 16.0045 98.1602 16.0068C98.1598 16.008 98.1594 16.0092 98.1592 16.0098V16.0107L98.0078 16.4717L98.4648 16.6357C101.404 17.6957 103.608 18.4892 105.078 19.0176C105.813 19.2817 106.364 19.4804 106.731 19.6123L107.249 19.7979C107.26 19.8019 107.269 19.8046 107.274 19.8066C107.277 19.8077 107.28 19.8081 107.281 19.8086L107.282 19.8096H107.283L107.752 19.9775L107.922 19.5088L112.615 6.53027C116.383 11.8776 117.515 17.7786 116.021 24.2725C112.207 27.2467 109.569 30.601 108.143 34.3379L108.109 34.4238V78.2061L108.14 78.2891C108.842 80.2096 109.822 81.8766 111.068 83.2979L111.093 83.3252L111.12 83.3486C113.696 85.542 114.959 87.9787 115.294 90.4385C115.63 92.9077 115.036 95.4498 113.81 97.8496C111.518 102.334 107.068 106.224 102.681 108.051C104.088 103.755 105.158 100.492 105.889 98.2637C106.282 97.0648 106.577 96.1651 106.773 95.5654C106.872 95.2659 106.946 95.0415 106.995 94.8916C107.02 94.8168 107.038 94.7601 107.05 94.7227C107.056 94.7042 107.06 94.69 107.063 94.6807C107.065 94.676 107.067 94.6723 107.067 94.6699C107.068 94.6688 107.068 94.6676 107.068 94.667V94.666L107.22 94.2041L106.763 94.04C103.82 92.9834 101.614 92.1916 100.144 91.6641C99.4083 91.4003 98.8568 91.2021 98.4893 91.0703C98.3059 91.0046 98.168 90.9558 98.0762 90.9229C98.0305 90.9065 97.9956 90.894 97.9727 90.8857C97.9612 90.8816 97.952 90.878 97.9463 90.876C97.9438 90.8751 97.9418 90.8745 97.9404 90.874L97.9385 90.873H97.9375L97.4688 90.7051L97.2988 91.1738L92.6045 104.151C88.8368 98.8041 87.7051 92.9028 89.2051 86.4092C93.0129 83.4291 95.6528 80.0822 97.0791 76.3447L97.1113 76.2588V32.4766Z" fill="#07306D"/>
<path d="M12.4932 61.333V61.3398H21.0703V64.6348C20.3609 65.2719 19.7538 66.005 19.2744 66.8125L19.0605 67.1924C18.3594 68.5124 17.9814 69.9978 17.9814 71.5303C17.9815 73.0628 18.3593 74.5482 19.0605 75.8682V75.8672C19.5674 76.8231 20.25 77.6925 21.0703 78.4248V101.215C21.0703 103.488 20.1389 105.56 18.6348 107.064L18.4883 107.211C17.0036 108.625 14.9928 109.5 12.7852 109.5C10.5467 109.5 8.51498 108.603 7.01758 107.153L6.94922 107.079L6.94238 107.072L6.93555 107.064L6.66016 106.776C5.31845 105.301 4.50001 103.346 4.5 101.215V78.4248C5.31912 77.6891 6.00098 76.8249 6.50879 75.8672L6.50977 75.8682C7.2111 74.548 7.58881 73.0561 7.58887 71.5303C7.58887 70.0933 7.25619 68.698 6.63672 67.4414L6.50977 67.1924C6.00206 66.2287 5.31976 65.3637 4.5 64.6328V61.333H12.4932ZM9.52051 77.5459C8.29521 77.5461 7.29801 78.5433 7.29785 79.7686V103.166C7.29806 104.391 8.29523 105.389 9.52051 105.389C10.7459 105.389 11.7439 104.391 11.7441 103.166V79.7686C11.744 78.5432 10.7459 77.5459 9.52051 77.5459ZM16.0498 77.5459C14.8166 77.5459 13.8263 78.5444 13.8262 79.7686V103.166C13.8264 104.39 14.8167 105.389 16.0498 105.389C17.2751 105.389 18.2723 104.391 18.2725 103.166V79.7686C18.2723 78.5432 17.2751 77.546 16.0498 77.5459ZM58.4531 30.6074L60.6523 91.5635C60.7635 94.8149 59.3923 96.7847 57.665 97.6455L57.6611 97.6475C56.9424 98.0127 56.13 98.1982 55.2998 98.1982H55.0615C54.4249 98.1696 53.796 98.0279 53.209 97.7764L52.9287 97.6465L52.6084 97.4717C51.0337 96.533 49.8302 94.6048 49.9404 91.5635L52.1338 30.6074H58.4531ZM12.9766 0.505859L12.9854 0.506836H13.8545L16.7119 11.543L13.8623 16.8154C13.6765 17.1532 13.5942 17.5131 13.5859 17.8574V56.8926H11.5225V17.876C11.5225 17.4503 11.4021 17.0555 11.1943 16.7178L8.40234 11.542L11.2539 0.504883L12.7832 0.5L12.9766 0.505859ZM61.6875 10.9307L64.2422 14.1055L64.2432 14.1074C64.6796 14.6446 65.3247 14.9284 65.9697 14.9287V14.9297L70.4834 14.9365C71.1099 14.9365 71.6704 14.6749 72.0703 14.2695L72.0713 14.2705L74.5479 11.9902H78.7607C78.7383 16.3694 78.7383 20.7224 78.7607 25.1016H74.5479L71.9863 22.749H71.9854C71.5613 22.3527 71.0174 22.1635 70.4912 22.1553H65.9707C65.2281 22.1553 64.568 22.5217 64.1641 23.083L61.6875 26.1611H49.2432L46.1143 19.5859C45.7313 18.7726 44.9078 18.2982 44.0615 18.3193C39.4283 18.2145 34.7875 20.0937 30.1455 23.875C31.0014 21.1802 32.3582 18.6916 34.1768 16.6338V16.6328C36.9643 13.4732 40.8691 11.3026 45.7686 10.9307H61.6875ZM97.1113 32.4766L97.0811 32.3936C96.3788 30.474 95.4053 28.8062 94.1514 27.3838L94.1279 27.3574L94.1006 27.334L93.6328 26.9199C91.3703 24.8359 90.2409 22.5503 89.9277 20.2441C89.5925 17.775 90.1867 15.2329 91.4131 12.833C93.7049 8.3485 98.1559 4.45797 102.54 2.63086C101.132 6.92729 100.064 10.1891 99.335 12.416C98.9429 13.6138 98.6491 14.5123 98.4531 15.1113C98.3551 15.4109 98.2814 15.6364 98.2324 15.7861C98.208 15.8608 98.189 15.9167 98.1768 15.9541C98.1707 15.9727 98.1661 15.9867 98.1631 15.9961C98.1616 16.0007 98.1609 16.0045 98.1602 16.0068C98.1598 16.008 98.1594 16.0092 98.1592 16.0098V16.0107L98.0078 16.4717L98.4648 16.6357C101.404 17.6957 103.608 18.4892 105.078 19.0176C105.813 19.2817 106.364 19.4804 106.731 19.6123L107.249 19.7979C107.26 19.8019 107.269 19.8046 107.274 19.8066C107.277 19.8077 107.28 19.8081 107.281 19.8086L107.282 19.8096H107.283L107.752 19.9775L107.922 19.5088L112.615 6.53027C116.383 11.8776 117.515 17.7786 116.021 24.2725C112.207 27.2467 109.569 30.601 108.143 34.3379L108.109 34.4238V78.2061L108.14 78.2891C108.842 80.2096 109.822 81.8766 111.068 83.2979L111.093 83.3252L111.12 83.3486C113.696 85.542 114.959 87.9787 115.294 90.4385C115.63 92.9077 115.036 95.4498 113.81 97.8496C111.518 102.334 107.068 106.224 102.681 108.051C104.088 103.755 105.158 100.492 105.889 98.2637C106.282 97.0648 106.577 96.1651 106.773 95.5654C106.872 95.2659 106.946 95.0415 106.995 94.8916C107.02 94.8168 107.038 94.7601 107.05 94.7227C107.056 94.7042 107.06 94.69 107.063 94.6807C107.065 94.676 107.067 94.6723 107.067 94.6699C107.068 94.6688 107.068 94.6676 107.068 94.667V94.666L107.22 94.2041L106.763 94.04C103.82 92.9834 101.614 92.1916 100.144 91.6641C99.4083 91.4003 98.8568 91.2021 98.4893 91.0703C98.3059 91.0046 98.168 90.9558 98.0762 90.9229C98.0305 90.9065 97.9956 90.894 97.9727 90.8857C97.9612 90.8816 97.952 90.878 97.9463 90.876C97.9438 90.8751 97.9418 90.8745 97.9404 90.874L97.9385 90.873H97.9375L97.4688 90.7051L97.2988 91.1738L92.6045 104.151C88.8368 98.8041 87.7051 92.9028 89.2051 86.4092C93.0129 83.4291 95.6528 80.0822 97.0791 76.3447L97.1113 76.2588V32.4766Z" stroke="black"/>
<path d="M12.4932 61.333V61.3398H21.0703V64.6348C20.3609 65.2719 19.7538 66.005 19.2744 66.8125L19.0605 67.1924C18.3594 68.5124 17.9814 69.9978 17.9814 71.5303C17.9815 73.0628 18.3593 74.5482 19.0605 75.8682V75.8672C19.5674 76.8231 20.25 77.6925 21.0703 78.4248V101.215C21.0703 103.488 20.1389 105.56 18.6348 107.064L18.4883 107.211C17.0036 108.625 14.9928 109.5 12.7852 109.5C10.5467 109.5 8.51498 108.603 7.01758 107.153L6.94922 107.079L6.94238 107.072L6.93555 107.064L6.66016 106.776C5.31845 105.301 4.50001 103.346 4.5 101.215V78.4248C5.31912 77.6891 6.00098 76.8249 6.50879 75.8672L6.50977 75.8682C7.2111 74.548 7.58881 73.0561 7.58887 71.5303C7.58887 70.0933 7.25619 68.698 6.63672 67.4414L6.50977 67.1924C6.00206 66.2287 5.31976 65.3637 4.5 64.6328V61.333H12.4932ZM9.52051 77.5459C8.29521 77.5461 7.29801 78.5433 7.29785 79.7686V103.166C7.29806 104.391 8.29523 105.389 9.52051 105.389C10.7459 105.389 11.7439 104.391 11.7441 103.166V79.7686C11.744 78.5432 10.7459 77.5459 9.52051 77.5459ZM16.0498 77.5459C14.8166 77.5459 13.8263 78.5444 13.8262 79.7686V103.166C13.8264 104.39 14.8167 105.389 16.0498 105.389C17.2751 105.389 18.2723 104.391 18.2725 103.166V79.7686C18.2723 78.5432 17.2751 77.546 16.0498 77.5459ZM58.4531 30.6074L60.6523 91.5635C60.7635 94.8149 59.3923 96.7847 57.665 97.6455L57.6611 97.6475C56.9424 98.0127 56.13 98.1982 55.2998 98.1982H55.0615C54.4249 98.1696 53.796 98.0279 53.209 97.7764L52.9287 97.6465L52.6084 97.4717C51.0337 96.533 49.8302 94.6048 49.9404 91.5635L52.1338 30.6074H58.4531ZM12.9766 0.505859L12.9854 0.506836H13.8545L16.7119 11.543L13.8623 16.8154C13.6765 17.1532 13.5942 17.5131 13.5859 17.8574V56.8926H11.5225V17.876C11.5225 17.4503 11.4021 17.0555 11.1943 16.7178L8.40234 11.542L11.2539 0.504883L12.7832 0.5L12.9766 0.505859ZM61.6875 10.9307L64.2422 14.1055L64.2432 14.1074C64.6796 14.6446 65.3247 14.9284 65.9697 14.9287V14.9297L70.4834 14.9365C71.1099 14.9365 71.6704 14.6749 72.0703 14.2695L72.0713 14.2705L74.5479 11.9902H78.7607C78.7383 16.3694 78.7383 20.7224 78.7607 25.1016H74.5479L71.9863 22.749H71.9854C71.5613 22.3527 71.0174 22.1635 70.4912 22.1553H65.9707C65.2281 22.1553 64.568 22.5217 64.1641 23.083L61.6875 26.1611H49.2432L46.1143 19.5859C45.7313 18.7726 44.9078 18.2982 44.0615 18.3193C39.4283 18.2145 34.7875 20.0937 30.1455 23.875C31.0014 21.1802 32.3582 18.6916 34.1768 16.6338V16.6328C36.9643 13.4732 40.8691 11.3026 45.7686 10.9307H61.6875ZM97.1113 32.4766L97.0811 32.3936C96.3788 30.474 95.4053 28.8062 94.1514 27.3838L94.1279 27.3574L94.1006 27.334L93.6328 26.9199C91.3703 24.8359 90.2409 22.5503 89.9277 20.2441C89.5925 17.775 90.1867 15.2329 91.4131 12.833C93.7049 8.3485 98.1559 4.45797 102.54 2.63086C101.132 6.92729 100.064 10.1891 99.335 12.416C98.9429 13.6138 98.6491 14.5123 98.4531 15.1113C98.3551 15.4109 98.2814 15.6364 98.2324 15.7861C98.208 15.8608 98.189 15.9167 98.1768 15.9541C98.1707 15.9727 98.1661 15.9867 98.1631 15.9961C98.1616 16.0007 98.1609 16.0045 98.1602 16.0068C98.1598 16.008 98.1594 16.0092 98.1592 16.0098V16.0107L98.0078 16.4717L98.4648 16.6357C101.404 17.6957 103.608 18.4892 105.078 19.0176C105.813 19.2817 106.364 19.4804 106.731 19.6123L107.249 19.7979C107.26 19.8019 107.269 19.8046 107.274 19.8066C107.277 19.8077 107.28 19.8081 107.281 19.8086L107.282 19.8096H107.283L107.752 19.9775L107.922 19.5088L112.615 6.53027C116.383 11.8776 117.515 17.7786 116.021 24.2725C112.207 27.2467 109.569 30.601 108.143 34.3379L108.109 34.4238V78.2061L108.14 78.2891C108.842 80.2096 109.822 81.8766 111.068 83.2979L111.093 83.3252L111.12 83.3486C113.696 85.542 114.959 87.9787 115.294 90.4385C115.63 92.9077 115.036 95.4498 113.81 97.8496C111.518 102.334 107.068 106.224 102.681 108.051C104.088 103.755 105.158 100.492 105.889 98.2637C106.282 97.0648 106.577 96.1651 106.773 95.5654C106.872 95.2659 106.946 95.0415 106.995 94.8916C107.02 94.8168 107.038 94.7601 107.05 94.7227C107.056 94.7042 107.06 94.69 107.063 94.6807C107.065 94.676 107.067 94.6723 107.067 94.6699C107.068 94.6688 107.068 94.6676 107.068 94.667V94.666L107.22 94.2041L106.763 94.04C103.82 92.9834 101.614 92.1916 100.144 91.6641C99.4083 91.4003 98.8568 91.2021 98.4893 91.0703C98.3059 91.0046 98.168 90.9558 98.0762 90.9229C98.0305 90.9065 97.9956 90.894 97.9727 90.8857C97.9612 90.8816 97.952 90.878 97.9463 90.876C97.9438 90.8751 97.9418 90.8745 97.9404 90.874L97.9385 90.873H97.9375L97.4688 90.7051L97.2988 91.1738L92.6045 104.151C88.8368 98.8041 87.7051 92.9028 89.2051 86.4092C93.0129 83.4291 95.6528 80.0822 97.0791 76.3447L97.1113 76.2588V32.4766Z" stroke="black" stroke-opacity="0.2"/>
</g>
<defs>
<filter id="filter0_d_2514_603" x="0" y="0" width="121.16" height="118" filterUnits="userSpaceOnUse" color-interpolation-filters="sRGB">
<feFlood flood-opacity="0" result="BackgroundImageFix"/>
<feColorMatrix in="SourceAlpha" type="matrix" values="0 0 0 0 0 0 0 0 0 0 0 0 0 0 0 0 0 0 127 0" result="hardAlpha"/>
<feOffset dy="4"/>
<feGaussianBlur stdDeviation="2"/>
<feComposite in2="hardAlpha" operator="out"/>
<feColorMatrix type="matrix" values="0 0 0 0 0 0 0 0 0 0 0 0 0 0 0 0 0 0 0.25 0"/>
<feBlend mode="normal" in2="BackgroundImageFix" result="effect1_dropShadow_2514_603"/>
<feBlend mode="normal" in="SourceGraphic" in2="effect1_dropShadow_2514_603" result="shape"/>
</filter>
</defs>
</svg>
