<svg width="1200" height="764" viewBox="0 0 1200 764" fill="none" xmlns="http://www.w3.org/2000/svg">
<rect width="1200" height="764" fill="white"/>
<mask id="mask0_4736_6530" style="mask-type:luminance" maskUnits="userSpaceOnUse" x="326" y="434" width="547" height="107">
<path d="M872.713 434.149H326.586V540.456H872.713V434.149Z" fill="white"/>
</mask>
<g mask="url(#mask0_4736_6530)">
<path d="M335.324 458.453H362.129C368.529 458.453 374.188 459.683 379.098 462.133C384.024 464.568 387.859 468.012 390.595 472.458C393.331 476.888 394.699 482.058 394.699 487.961C394.699 493.873 393.331 499.051 390.595 503.497C387.859 507.926 384.024 511.371 379.098 513.821C374.188 516.256 368.529 517.469 362.129 517.469H335.324V458.453ZM361.445 506.265C367.348 506.265 372.063 504.629 375.58 501.347C379.098 498.05 380.857 493.588 380.857 487.961C380.857 482.343 379.098 477.889 375.58 474.608C372.063 471.31 367.348 469.657 361.445 469.657H348.971V506.265H361.445Z" fill="#07306D"/>
<path d="M449.074 472.1L428.587 520.238C426.503 525.465 423.93 529.146 420.868 531.279C417.807 533.429 414.102 534.503 409.762 534.503C407.417 534.503 405.08 534.129 402.76 533.396C400.455 532.679 398.574 531.67 397.125 530.367L401.945 521.02C402.939 521.907 404.103 522.599 405.43 523.104C406.749 523.625 408.068 523.886 409.371 523.886C411.146 523.886 412.604 523.446 413.735 522.583C414.859 521.712 415.869 520.254 416.764 518.219L416.96 517.795L397.288 472.1H410.869L423.604 502.878L436.437 472.1H449.074Z" fill="#07306D"/>
<path d="M454.473 454.903H467.631V517.469H454.473V454.903Z" fill="#07306D"/>
<path d="M498.153 471.416C505.188 471.416 510.579 473.093 514.34 476.432C518.119 479.778 520.008 484.827 520.008 491.577V517.469H507.696V511.835C505.221 516.053 500.604 518.153 493.854 518.153C490.377 518.153 487.357 517.567 484.8 516.395C482.235 515.206 480.281 513.561 478.937 511.477C477.586 509.392 476.918 507.039 476.918 504.409C476.918 500.199 478.498 496.885 481.673 494.475C484.841 492.049 489.75 490.827 496.395 490.827H506.849C506.849 487.961 505.97 485.763 504.211 484.216C502.469 482.653 499.863 481.871 496.395 481.871C493.984 481.871 491.607 482.254 489.262 483.011C486.933 483.776 484.963 484.802 483.334 486.105L478.612 476.92C481.062 475.162 484.018 473.81 487.471 472.849C490.939 471.896 494.506 471.416 498.153 471.416ZM497.144 509.294C499.399 509.294 501.394 508.773 503.136 507.731C504.871 506.689 506.108 505.158 506.849 503.139V498.481H497.828C492.421 498.481 489.718 500.265 489.718 503.823C489.718 505.5 490.377 506.835 491.705 507.829C493.024 508.806 494.839 509.294 497.144 509.294Z" fill="#07306D"/>
<path d="M559.465 471.416C565.084 471.416 569.627 473.11 573.079 476.497C576.532 479.868 578.258 484.867 578.258 491.511V517.469H565.1V493.531C565.1 489.932 564.302 487.245 562.722 485.486C561.159 483.711 558.887 482.815 555.915 482.815C552.609 482.815 549.971 483.849 548.001 485.909C546.022 487.953 545.037 490.99 545.037 495.029V517.469H531.879V472.1H544.451V477.409C546.185 475.504 548.343 474.022 550.932 472.979C553.538 471.937 556.379 471.416 559.465 471.416Z" fill="#07306D"/>
<path d="M634.361 518.479C629.687 518.479 625.176 517.844 620.812 516.59C616.464 515.336 612.97 513.683 610.324 511.64L614.982 501.38C617.498 503.228 620.494 504.719 623.971 505.842C627.464 506.95 630.957 507.503 634.458 507.503C638.342 507.503 641.208 506.933 643.057 505.777C644.897 504.629 645.825 503.098 645.825 501.185C645.825 499.8 645.271 498.636 644.164 497.7C643.073 496.772 641.672 496.022 639.963 495.452C638.269 494.891 635.956 494.272 633.025 493.596C628.531 492.537 624.85 491.471 621.984 490.404C619.118 489.346 616.651 487.628 614.591 485.258C612.547 482.897 611.529 479.746 611.529 475.813C611.529 472.385 612.449 469.283 614.298 466.498C616.162 463.722 618.963 461.515 622.701 459.886C626.43 458.258 630.99 457.444 636.38 457.444C640.158 457.444 643.838 457.892 647.421 458.779C651.02 459.675 654.179 460.961 656.899 462.655L652.665 473.045C647.209 469.942 641.762 468.387 636.315 468.387C632.488 468.387 629.671 469.006 627.847 470.244C626.023 471.481 625.111 473.11 625.111 475.129C625.111 477.173 626.161 478.679 628.27 479.656C630.371 480.633 633.587 481.602 637.911 482.555C642.405 483.622 646.086 484.696 648.952 485.779C651.818 486.846 654.269 488.531 656.313 490.828C658.373 493.132 659.407 496.25 659.407 500.175C659.407 503.562 658.462 506.648 656.573 509.425C654.7 512.21 651.883 514.408 648.105 516.036C644.343 517.665 639.767 518.479 634.361 518.479Z" fill="#07306D"/>
<path d="M725.936 471.416C731.62 471.416 736.139 473.093 739.485 476.431C742.824 479.778 744.501 484.802 744.501 491.511V517.469H731.343V493.531C731.343 489.932 730.594 487.245 729.095 485.486C727.614 483.711 725.497 482.815 722.744 482.815C719.634 482.815 717.183 483.817 715.384 485.812C713.6 487.815 712.713 490.778 712.713 494.703V517.469H699.555V493.531C699.555 486.39 696.689 482.815 690.956 482.815C687.911 482.815 685.493 483.817 683.693 485.812C681.886 487.815 680.99 490.778 680.99 494.703V517.469H667.832V472.1H680.404V477.343C682.098 475.438 684.158 473.972 686.592 472.947C689.043 471.929 691.738 471.416 694.669 471.416C697.861 471.416 700.744 472.059 703.333 473.337C705.914 474.599 707.998 476.431 709.586 478.842C711.426 476.48 713.771 474.656 716.621 473.37C719.463 472.067 722.565 471.416 725.936 471.416Z" fill="#07306D"/>
<path d="M756.287 472.1H769.445V517.469H756.287V472.1ZM762.866 465.781C760.456 465.781 758.486 465.081 756.971 463.664C755.449 462.256 754.691 460.521 754.691 458.453C754.691 456.369 755.449 454.626 756.971 453.21C758.486 451.801 760.456 451.093 762.866 451.093C765.293 451.093 767.263 451.776 768.761 453.144C770.276 454.496 771.041 456.173 771.041 458.193C771.041 460.391 770.276 462.199 768.761 463.632C767.263 465.065 765.293 465.781 762.866 465.781Z" fill="#07306D"/>
<path d="M810.951 515.287C809.648 516.248 808.052 516.965 806.163 517.437C804.29 517.909 802.32 518.153 800.236 518.153C794.829 518.153 790.644 516.777 787.696 514.017C784.765 511.265 783.299 507.21 783.299 501.869V483.239H776.297V473.11H783.299V462.069H796.425V473.11H807.727V483.239H796.425V501.706C796.425 503.619 796.913 505.093 797.891 506.135C798.884 507.178 800.284 507.699 802.092 507.699C804.176 507.699 805.943 507.137 807.401 506.005L810.951 515.287Z" fill="#07306D"/>
<path d="M845.954 471.416C851.572 471.416 856.115 473.109 859.568 476.497C863.02 479.868 864.746 484.867 864.746 491.511V517.469H851.588V493.531C851.588 489.932 850.79 487.245 849.211 485.486C847.647 483.711 845.376 482.815 842.404 482.815C839.098 482.815 836.46 483.849 834.489 485.909C832.511 487.953 831.525 490.99 831.525 495.029V517.469H818.367V454.903H831.525V476.822C833.284 475.088 835.385 473.753 837.844 472.816C840.319 471.888 843.022 471.416 845.954 471.416Z" fill="#07306D"/>
</g>
<mask id="mask1_4736_6530" style="mask-type:luminance" maskUnits="userSpaceOnUse" x="312" y="536" width="576" height="49">
<path d="M887.309 536.287H312V584.229H887.309V536.287Z" fill="white"/>
</mask>
<g mask="url(#mask1_4736_6530)">
<path d="M327.159 547.801C330.326 547.801 332.809 548.566 334.617 550.081C336.417 551.603 337.32 553.688 337.32 556.334C337.32 558.988 336.417 561.057 334.617 562.555C332.809 564.053 330.326 564.802 327.159 564.802H320.482V572.651H317.844V547.801H327.159ZM327.094 562.49C329.544 562.49 331.425 561.96 332.728 560.894C334.031 559.811 334.682 558.288 334.682 556.334C334.682 554.315 334.031 552.776 332.728 551.709C331.425 550.626 329.544 550.081 327.094 550.081H320.482V562.49H327.094Z" fill="#07306D"/>
<path d="M344.395 557.637C344.981 556.383 345.86 555.438 347.033 554.803C348.205 554.152 349.655 553.826 351.397 553.826V556.302L350.778 556.236C348.824 556.236 347.277 556.847 346.153 558.06C345.046 559.282 344.492 560.975 344.492 563.141V572.652H341.984V553.989H344.395V557.637Z" fill="#07306D"/>
<path d="M363.381 572.814C361.574 572.814 359.945 572.415 358.496 571.609C357.063 570.787 355.931 569.655 355.109 568.222C354.278 566.773 353.871 565.128 353.871 563.304C353.871 561.48 354.278 559.852 355.109 558.419C355.931 556.969 357.063 555.837 358.496 555.031C359.945 554.233 361.574 553.826 363.381 553.826C365.181 553.826 366.801 554.233 368.234 555.031C369.684 555.837 370.815 556.969 371.622 558.419C372.444 559.852 372.859 561.48 372.859 563.304C372.859 565.128 372.444 566.773 371.622 568.222C370.815 569.655 369.684 570.787 368.234 571.609C366.801 572.415 365.181 572.814 363.381 572.814ZM363.381 570.6C364.7 570.6 365.889 570.298 366.932 569.688C367.99 569.085 368.821 568.222 369.407 567.115C370.009 566.007 370.319 564.737 370.319 563.304C370.319 561.895 370.009 560.633 369.407 559.526C368.821 558.402 367.99 557.539 366.932 556.953C365.889 556.35 364.7 556.041 363.381 556.041C362.054 556.041 360.857 556.35 359.799 556.953C358.757 557.539 357.926 558.402 357.323 559.526C356.737 560.633 356.444 561.895 356.444 563.304C356.444 564.737 356.737 566.007 357.323 567.115C357.926 568.222 358.757 569.085 359.799 569.688C360.857 570.298 362.054 570.6 363.381 570.6Z" fill="#07306D"/>
<path d="M387.62 553.826C389.379 553.826 390.958 554.233 392.375 555.031C393.808 555.813 394.923 556.937 395.73 558.386C396.528 559.819 396.935 561.464 396.935 563.304C396.935 565.177 396.528 566.838 395.73 568.287C394.923 569.72 393.816 570.844 392.407 571.642C390.991 572.424 389.395 572.814 387.62 572.814C386.122 572.814 384.754 572.513 383.516 571.902C382.295 571.275 381.301 570.355 380.52 569.134V579.524H378.012V553.989H380.422V557.67C381.179 556.432 382.181 555.487 383.418 554.836C384.656 554.168 386.056 553.826 387.62 553.826ZM387.457 570.6C388.76 570.6 389.94 570.298 391.007 569.688C392.066 569.085 392.896 568.222 393.482 567.115C394.085 566.007 394.394 564.737 394.394 563.304C394.394 561.895 394.085 560.65 393.482 559.559C392.896 558.451 392.066 557.596 391.007 556.986C389.94 556.359 388.76 556.041 387.457 556.041C386.13 556.041 384.933 556.359 383.874 556.986C382.832 557.596 382.001 558.451 381.399 559.559C380.788 560.65 380.487 561.895 380.487 563.304C380.487 564.737 380.788 566.007 381.399 567.115C382.001 568.222 382.832 569.085 383.874 569.688C384.933 570.298 386.13 570.6 387.457 570.6Z" fill="#07306D"/>
<path d="M418.325 564.086H402.724C402.854 566.04 403.587 567.62 404.939 568.808C406.282 570.005 407.984 570.6 410.052 570.6C411.225 570.6 412.283 570.396 413.244 569.981C414.221 569.574 415.068 568.963 415.784 568.157L417.185 569.785C416.354 570.762 415.328 571.512 414.091 572.033C412.853 572.554 411.485 572.814 409.987 572.814C408.074 572.814 406.372 572.415 404.874 571.609C403.392 570.787 402.244 569.655 401.421 568.222C400.591 566.773 400.184 565.128 400.184 563.304C400.184 561.48 400.574 559.852 401.356 558.419C402.154 556.969 403.253 555.837 404.646 555.031C406.03 554.233 407.585 553.826 409.303 553.826C411.037 553.826 412.593 554.233 413.961 555.031C415.328 555.837 416.403 556.953 417.185 558.386C417.967 559.819 418.357 561.464 418.357 563.304L418.325 564.086ZM409.303 556.008C407.495 556.008 405.989 556.587 404.776 557.735C403.555 558.891 402.871 560.389 402.724 562.229H415.947C415.768 560.389 415.076 558.891 413.863 557.735C412.641 556.587 411.127 556.008 409.303 556.008Z" fill="#07306D"/>
<path d="M425.918 557.637C426.504 556.383 427.384 555.438 428.556 554.803C429.729 554.152 431.178 553.826 432.92 553.826V556.302L432.302 556.236C430.347 556.236 428.8 556.847 427.677 558.06C426.569 559.282 426.016 560.975 426.016 563.141V572.652H423.508V553.989H425.918V557.637Z" fill="#07306D"/>
<path d="M448.118 571.511C447.637 571.951 447.051 572.277 446.359 572.489C445.659 572.7 444.934 572.814 444.177 572.814C442.418 572.814 441.058 572.35 440.105 571.414C439.169 570.461 438.705 569.126 438.705 567.408V556.106H435.383V553.989H438.705V549.885H441.213V553.989H446.912V556.106H441.213V567.245C441.213 568.377 441.49 569.232 442.06 569.818C442.621 570.388 443.428 570.665 444.47 570.665C444.991 570.665 445.488 570.591 445.968 570.437C446.44 570.266 446.864 570.03 447.238 569.72L448.118 571.511Z" fill="#07306D"/>
<path d="M468.025 553.989L458.678 574.899C457.912 576.633 457.033 577.871 456.04 578.612C455.062 579.345 453.865 579.719 452.457 579.719C451.561 579.719 450.731 579.573 449.949 579.296C449.167 579.011 448.5 578.587 447.93 578.026L449.102 576.137C450.03 577.065 451.162 577.537 452.489 577.537C453.353 577.537 454.085 577.293 454.672 576.821C455.274 576.365 455.844 575.558 456.365 574.41L457.179 572.619L448.842 553.989H451.48L458.515 569.851L465.517 553.989H468.025Z" fill="#07306D"/>
<path d="M499.162 573.042L495.742 569.492C493.633 571.756 490.865 572.879 487.437 572.879C485.808 572.879 484.359 572.611 483.105 572.065C481.843 571.528 480.858 570.779 480.141 569.818C479.425 568.865 479.066 567.782 479.066 566.561C479.066 565.063 479.539 563.727 480.499 562.555C481.452 561.366 483.056 560.112 485.32 558.809C484.147 557.572 483.333 556.529 482.877 555.683C482.421 554.819 482.193 553.891 482.193 552.914C482.193 551.334 482.755 550.064 483.887 549.103C485.035 548.126 486.566 547.638 488.479 547.638C490.254 547.638 491.671 548.078 492.713 548.941C493.755 549.812 494.276 551.017 494.276 552.556C494.276 553.793 493.861 554.901 493.039 555.878C492.208 556.855 490.775 557.946 488.74 559.135L495.547 566.17C496.304 564.802 496.858 563.198 497.208 561.35L499.292 562.001C498.836 564.216 498.095 566.121 497.077 567.701L500.627 571.381L499.162 573.042ZM488.479 549.494C487.258 549.494 486.297 549.812 485.58 550.439C484.88 551.049 484.538 551.864 484.538 552.882C484.538 553.622 484.717 554.331 485.092 554.999C485.483 555.65 486.232 556.546 487.339 557.669C489.139 556.627 490.376 555.74 491.052 554.999C491.744 554.266 492.094 553.46 492.094 552.588C492.094 551.66 491.777 550.911 491.15 550.341C490.515 549.779 489.627 549.494 488.479 549.494ZM487.567 570.762C490.303 570.762 492.526 569.834 494.244 567.961L486.753 560.275C484.774 561.382 483.414 562.392 482.682 563.304C481.941 564.199 481.574 565.193 481.574 566.3C481.574 567.652 482.112 568.735 483.203 569.557C484.31 570.363 485.759 570.762 487.567 570.762Z" fill="#07306D"/>
<path d="M531.939 560.243H534.447V569.72C533.291 570.722 531.923 571.504 530.343 572.065C528.755 572.611 527.086 572.88 525.327 572.88C522.828 572.88 520.58 572.342 518.585 571.251C516.607 570.144 515.052 568.638 513.928 566.724C512.796 564.794 512.234 562.637 512.234 560.243C512.234 557.833 512.796 555.675 513.928 553.761C515.052 551.832 516.607 550.325 518.585 549.234C520.58 548.127 522.836 547.573 525.36 547.573C527.249 547.573 528.983 547.883 530.571 548.485C532.151 549.096 533.486 550 534.577 551.188L532.949 552.849C530.994 550.895 528.495 549.918 525.458 549.918C523.455 549.918 521.647 550.366 520.019 551.253C518.39 552.149 517.104 553.387 516.175 554.966C515.263 556.53 514.807 558.289 514.807 560.243C514.807 562.181 515.263 563.923 516.175 565.486C517.104 567.05 518.374 568.287 519.986 569.199C521.614 570.095 523.422 570.535 525.425 570.535C527.982 570.535 530.156 569.9 531.939 568.613V560.243Z" fill="#07306D"/>
<path d="M547.843 553.826C550.294 553.826 552.175 554.445 553.477 555.683C554.78 556.904 555.432 558.704 555.432 561.089V572.652H553.021V569.753C552.435 570.714 551.588 571.463 550.481 572C549.39 572.546 548.087 572.814 546.573 572.814C544.488 572.814 542.827 572.326 541.59 571.349C540.368 570.355 539.766 569.036 539.766 567.408C539.766 565.828 540.336 564.542 541.492 563.565C542.64 562.588 544.464 562.099 546.964 562.099H552.891V560.959C552.891 559.355 552.435 558.142 551.523 557.311C550.628 556.464 549.325 556.041 547.615 556.041C546.418 556.041 545.278 556.236 544.195 556.627C543.104 557.018 542.176 557.556 541.394 558.223L540.254 556.367C541.207 555.569 542.347 554.95 543.674 554.51C544.993 554.054 546.385 553.826 547.843 553.826ZM546.964 570.828C548.397 570.828 549.61 570.502 550.611 569.851C551.629 569.199 552.386 568.271 552.891 567.05V563.988H547.029C543.837 563.988 542.241 565.112 542.241 567.343C542.241 568.434 542.648 569.289 543.479 569.916C544.325 570.526 545.482 570.828 546.964 570.828Z" fill="#07306D"/>
<path d="M564.684 557.637C565.27 556.383 566.149 555.438 567.322 554.803C568.494 554.152 569.944 553.826 571.686 553.826V556.302L571.067 556.236C569.113 556.236 567.566 556.847 566.442 558.06C565.335 559.282 564.781 560.975 564.781 563.141V572.652H562.273V553.989H564.684V557.637Z" fill="#07306D"/>
<path d="M593.071 546.302V572.651H590.661V568.971C589.896 570.209 588.902 571.169 587.665 571.837C586.427 572.488 585.027 572.814 583.463 572.814C581.705 572.814 580.109 572.415 578.676 571.609C577.259 570.811 576.151 569.687 575.354 568.254C574.547 566.805 574.148 565.152 574.148 563.304C574.148 561.464 574.547 559.819 575.354 558.386C576.151 556.936 577.259 555.813 578.676 555.031C580.109 554.233 581.705 553.826 583.463 553.826C584.962 553.826 586.313 554.144 587.535 554.771C588.772 555.406 589.782 556.326 590.564 557.539V546.302H593.071ZM583.659 570.599C584.962 570.599 586.134 570.298 587.176 569.687C588.235 569.085 589.073 568.222 589.684 567.114C590.287 566.007 590.596 564.737 590.596 563.304C590.596 561.895 590.287 560.633 589.684 559.526C589.073 558.402 588.235 557.539 587.176 556.953C586.134 556.35 584.962 556.041 583.659 556.041C582.332 556.041 581.135 556.35 580.076 556.953C579.034 557.539 578.203 558.402 577.601 559.526C577.015 560.633 576.721 561.895 576.721 563.304C576.721 564.737 577.015 566.007 577.601 567.114C578.203 568.222 579.034 569.085 580.076 569.687C581.135 570.298 582.332 570.599 583.659 570.599Z" fill="#07306D"/>
<path d="M616.348 564.086H600.747C600.878 566.04 601.611 567.62 602.962 568.808C604.306 570.005 606.007 570.6 608.076 570.6C609.248 570.6 610.307 570.396 611.267 569.981C612.245 569.574 613.091 568.963 613.808 568.157L615.208 569.785C614.378 570.762 613.352 571.512 612.114 572.033C610.877 572.554 609.509 572.814 608.01 572.814C606.097 572.814 604.395 572.415 602.897 571.609C601.415 570.787 600.267 569.655 599.445 568.222C598.614 566.773 598.207 565.128 598.207 563.304C598.207 561.48 598.598 559.852 599.38 558.419C600.177 556.969 601.277 555.837 602.669 555.031C604.053 554.233 605.608 553.826 607.327 553.826C609.061 553.826 610.616 554.233 611.984 555.031C613.352 555.837 614.427 556.953 615.208 558.386C615.99 559.819 616.381 561.464 616.381 563.304L616.348 564.086ZM607.327 556.008C605.519 556.008 604.013 556.587 602.799 557.735C601.578 558.891 600.894 560.389 600.747 562.229H613.971C613.792 560.389 613.099 558.891 611.886 557.735C610.665 556.587 609.15 556.008 607.327 556.008Z" fill="#07306D"/>
<path d="M631.049 553.826C633.394 553.826 635.251 554.51 636.619 555.878C638.003 557.246 638.703 559.233 638.703 561.838V572.652H636.195V562.066C636.195 560.137 635.707 558.663 634.73 557.637C633.769 556.619 632.393 556.106 630.593 556.106C628.574 556.106 626.978 556.709 625.806 557.897C624.633 559.094 624.047 560.747 624.047 562.848V572.652H621.539V553.989H623.949V557.409C624.641 556.285 625.594 555.406 626.815 554.771C628.029 554.144 629.437 553.826 631.049 553.826Z" fill="#07306D"/>
<path d="M681.203 547.801V572.651H678.662V552.784L668.924 569.492H667.654L657.915 552.882V572.651H655.375V547.801H657.557L668.338 566.235L679.021 547.801H681.203Z" fill="#07306D"/>
<path d="M695.261 553.826C697.712 553.826 699.593 554.445 700.895 555.683C702.198 556.904 702.85 558.704 702.85 561.089V572.652H700.439V569.753C699.853 570.714 699.006 571.463 697.899 572C696.808 572.546 695.505 572.814 693.991 572.814C691.906 572.814 690.245 572.326 689.007 571.349C687.786 570.355 687.184 569.036 687.184 567.408C687.184 565.828 687.754 564.542 688.91 563.565C690.058 562.588 691.882 562.099 694.381 562.099H700.309V560.959C700.309 559.355 699.853 558.142 698.941 557.311C698.046 556.464 696.743 556.041 695.033 556.041C693.836 556.041 692.696 556.236 691.613 556.627C690.522 557.018 689.594 557.556 688.812 558.223L687.672 556.367C688.625 555.569 689.765 554.95 691.092 554.51C692.411 554.054 693.803 553.826 695.261 553.826ZM694.381 570.828C695.815 570.828 697.028 570.502 698.029 569.851C699.047 569.199 699.804 568.271 700.309 567.05V563.988H694.447C691.255 563.988 689.659 565.112 689.659 567.343C689.659 568.434 690.066 569.289 690.897 569.916C691.743 570.526 692.9 570.828 694.381 570.828Z" fill="#07306D"/>
<path d="M709.7 553.989H712.207V572.651H709.7V553.989ZM710.97 549.885C710.449 549.885 710.001 549.714 709.634 549.364C709.284 549.022 709.113 548.599 709.113 548.094C709.113 547.622 709.284 547.206 709.634 546.856C710.001 546.49 710.449 546.302 710.97 546.302C711.491 546.302 711.922 546.482 712.273 546.824C712.639 547.174 712.826 547.589 712.826 548.061C712.826 548.582 712.639 549.022 712.273 549.364C711.922 549.714 711.491 549.885 710.97 549.885Z" fill="#07306D"/>
<path d="M728.741 553.826C731.086 553.826 732.942 554.51 734.31 555.878C735.694 557.246 736.395 559.233 736.395 561.838V572.652H733.887V562.066C733.887 560.137 733.398 558.663 732.421 557.637C731.46 556.619 730.084 556.106 728.285 556.106C726.266 556.106 724.67 556.709 723.497 557.897C722.325 559.094 721.738 560.747 721.738 562.848V572.652H719.23V553.989H721.641V557.409C722.333 556.285 723.285 555.406 724.507 554.771C725.72 554.144 727.129 553.826 728.741 553.826Z" fill="#07306D"/>
<path d="M753.098 571.511C752.618 571.951 752.031 572.277 751.339 572.489C750.639 572.7 749.914 572.814 749.157 572.814C747.398 572.814 746.039 572.35 745.086 571.414C744.149 570.461 743.685 569.126 743.685 567.408V556.106H740.363V553.989H743.685V549.885H746.193V553.989H751.893V556.106H746.193V567.245C746.193 568.377 746.47 569.232 747.04 569.818C747.602 570.388 748.408 570.665 749.45 570.665C749.971 570.665 750.468 570.591 750.948 570.437C751.421 570.266 751.844 570.03 752.219 569.72L753.098 571.511Z" fill="#07306D"/>
<path d="M773.266 564.086H757.665C757.796 566.04 758.529 567.62 759.88 568.808C761.224 570.005 762.925 570.6 764.994 570.6C766.166 570.6 767.225 570.396 768.185 569.981C769.162 569.574 770.009 568.963 770.726 568.157L772.126 569.785C771.296 570.762 770.27 571.512 769.032 572.033C767.795 572.554 766.427 572.814 764.928 572.814C763.015 572.814 761.313 572.415 759.815 571.609C758.333 570.787 757.185 569.655 756.363 568.222C755.532 566.773 755.125 565.128 755.125 563.304C755.125 561.48 755.516 559.852 756.298 558.419C757.095 556.969 758.195 555.837 759.587 555.031C760.971 554.233 762.526 553.826 764.244 553.826C765.979 553.826 767.534 554.233 768.902 555.031C770.27 555.837 771.345 556.953 772.126 558.386C772.908 559.819 773.299 561.464 773.299 563.304L773.266 564.086ZM764.244 556.008C762.437 556.008 760.931 556.587 759.717 557.735C758.496 558.891 757.812 560.389 757.665 562.229H770.889C770.71 560.389 770.017 558.891 768.804 557.735C767.583 556.587 766.068 556.008 764.244 556.008Z" fill="#07306D"/>
<path d="M787.944 553.826C790.289 553.826 792.145 554.51 793.513 555.878C794.898 557.246 795.598 559.233 795.598 561.838V572.652H793.09V562.066C793.09 560.137 792.601 558.663 791.624 557.637C790.663 556.619 789.287 556.106 787.488 556.106C785.469 556.106 783.873 556.709 782.7 557.897C781.528 559.094 780.941 560.747 780.941 562.848V572.652H778.434V553.989H780.844V557.409C781.536 556.285 782.489 555.406 783.71 554.771C784.923 554.144 786.332 553.826 787.944 553.826Z" fill="#07306D"/>
<path d="M808.987 553.826C811.438 553.826 813.319 554.445 814.622 555.683C815.925 556.904 816.576 558.704 816.576 561.089V572.652H814.166V569.753C813.58 570.714 812.733 571.463 811.626 572C810.534 572.546 809.232 572.814 807.717 572.814C805.633 572.814 803.972 572.326 802.734 571.349C801.513 570.355 800.91 569.036 800.91 567.408C800.91 565.828 801.48 564.542 802.636 563.565C803.784 562.588 805.608 562.099 808.108 562.099H814.036V560.959C814.036 559.355 813.58 558.142 812.668 557.311C811.772 556.464 810.469 556.041 808.759 556.041C807.562 556.041 806.423 556.236 805.34 556.627C804.249 557.018 803.32 557.556 802.539 558.223L801.399 556.367C802.351 555.569 803.491 554.95 804.819 554.51C806.138 554.054 807.53 553.826 808.987 553.826ZM808.108 570.828C809.541 570.828 810.754 570.502 811.756 569.851C812.774 569.199 813.531 568.271 814.036 567.05V563.988H808.173C804.981 563.988 803.385 565.112 803.385 567.343C803.385 568.434 803.793 569.289 804.623 569.916C805.47 570.526 806.626 570.828 808.108 570.828Z" fill="#07306D"/>
<path d="M832.909 553.826C835.254 553.826 837.11 554.51 838.478 555.878C839.862 557.246 840.563 559.233 840.563 561.838V572.652H838.055V562.066C838.055 560.137 837.566 558.663 836.589 557.637C835.628 556.619 834.252 556.106 832.453 556.106C830.433 556.106 828.838 556.709 827.665 557.897C826.493 559.094 825.906 560.747 825.906 562.848V572.652H823.398V553.989H825.809V557.409C826.501 556.285 827.453 555.406 828.675 554.771C829.888 554.144 831.297 553.826 832.909 553.826Z" fill="#07306D"/>
<path d="M855.246 572.814C853.398 572.814 851.737 572.415 850.263 571.609C848.805 570.811 847.665 569.68 846.843 568.222C846.013 566.773 845.605 565.128 845.605 563.304C845.605 561.48 846.013 559.852 846.843 558.419C847.665 556.969 848.805 555.837 850.263 555.031C851.737 554.233 853.398 553.826 855.246 553.826C856.85 553.826 858.283 554.144 859.545 554.771C860.799 555.406 861.801 556.326 862.542 557.539L860.653 558.809C860.042 557.881 859.26 557.181 858.308 556.725C857.371 556.269 856.353 556.041 855.246 556.041C853.878 556.041 852.649 556.35 851.566 556.953C850.499 557.539 849.66 558.402 849.058 559.526C848.472 560.633 848.178 561.895 848.178 563.304C848.178 564.762 848.472 566.04 849.058 567.147C849.66 568.238 850.499 569.085 851.566 569.688C852.649 570.298 853.878 570.6 855.246 570.6C856.353 570.6 857.371 570.372 858.308 569.916C859.26 569.46 860.042 568.776 860.653 567.864L862.542 569.134C861.801 570.355 860.791 571.275 859.513 571.902C858.251 572.513 856.826 572.814 855.246 572.814Z" fill="#07306D"/>
<path d="M883.407 564.086H867.806C867.936 566.04 868.669 567.62 870.021 568.808C871.364 570.005 873.066 570.6 875.134 570.6C876.307 570.6 877.365 570.396 878.326 569.981C879.303 569.574 880.15 568.963 880.866 568.157L882.267 569.785C881.436 570.762 880.41 571.512 879.173 572.033C877.935 572.554 876.567 572.814 875.069 572.814C873.156 572.814 871.454 572.415 869.956 571.609C868.474 570.787 867.326 569.655 866.503 568.222C865.673 566.773 865.266 565.128 865.266 563.304C865.266 561.48 865.656 559.852 866.438 558.419C867.236 556.969 868.335 555.837 869.728 555.031C871.112 554.233 872.667 553.826 874.385 553.826C876.119 553.826 877.675 554.233 879.043 555.031C880.41 555.837 881.485 556.953 882.267 558.386C883.049 559.819 883.439 561.464 883.439 563.304L883.407 564.086ZM874.385 556.008C872.577 556.008 871.071 556.587 869.858 557.735C868.637 558.891 867.953 560.389 867.806 562.229H881.029C880.85 560.389 880.158 558.891 878.945 557.735C877.723 556.587 876.209 556.008 874.385 556.008Z" fill="#07306D"/>
</g>
<mask id="mask2_4736_6530" style="mask-type:luminance" maskUnits="userSpaceOnUse" x="388" y="262" width="145" height="174">
<path d="M388.348 262.279H532.957V435.81H388.348V262.279Z" fill="white"/>
</mask>
<g mask="url(#mask2_4736_6530)">
<path d="M487.811 435.053C482.681 434.059 478.235 433.253 474.49 432.634C466.136 431.267 459.565 430.232 452.237 431.836C445.12 433.384 440.373 434.605 434.177 434.637C434.16 434.637 434.152 434.637 434.152 434.629C434.144 434.621 434.144 434.613 434.144 434.605L434.193 434.491C434.209 434.466 434.226 434.45 434.25 434.45C439.477 433.774 444.33 432.333 448.817 430.118C454.956 427.089 457.081 422.261 457.358 415.658C457.855 403.932 458.384 394.349 458.262 384.488C458.262 384.171 458.213 383.87 458.132 383.56C456.454 377.462 451.634 373.325 446.284 370.378C441.448 367.723 436.351 365.541 430.985 363.823C426.954 362.545 422.989 362.007 419.081 362.219C415.311 362.423 411.826 363.351 407.999 364.466C403.553 365.769 398.855 365.802 394.572 363.733C392.797 362.878 390.924 361.796 388.938 360.493C388.791 360.387 388.677 360.281 388.612 360.167C388.53 360.029 388.506 359.882 388.547 359.727C388.587 359.565 388.677 359.451 388.815 359.361C391.323 357.863 393.872 356.739 396.453 355.99C400.793 354.736 404.547 356.259 409.326 358.066C411.419 358.864 413.487 358.897 416.092 358.522C418.348 358.213 420.587 358.042 422.81 358.034C422.851 358.034 422.875 358.017 422.891 357.985C422.899 357.952 422.899 357.92 422.875 357.895C421.914 356.772 421.019 355.526 420.204 354.166C419.276 352.619 416.703 351.593 414.952 351.259C413.096 350.909 410.58 351.3 408.105 351.43C403.219 351.683 399.197 350.152 396.03 346.846C394.132 344.859 392.789 342.71 392.015 340.381C391.836 339.852 391.787 339.461 391.869 339.2C392.015 338.761 392.317 338.541 392.789 338.533C398.774 338.386 404.587 339.624 409.733 343.052C412.958 345.201 416.206 347.392 419.496 349.615C421.336 350.852 422.46 351.878 424.243 353.694C427.329 356.829 431.001 358.596 435.137 360.134C441.537 362.52 447.066 364.491 452.277 367.797C452.31 367.821 452.342 367.821 452.375 367.788C452.399 367.756 452.408 367.723 452.391 367.691C449.216 362.154 445.56 356.552 441.44 350.877C440.226 349.207 438.606 347.261 436.571 345.014C432.507 340.536 428.363 335.373 424.137 329.535C423.404 328.518 422.085 327.622 420.172 326.865C417.297 325.708 414.317 325.212 411.24 325.375C409.114 325.497 405.743 326.335 403.439 326.156C399.84 325.871 396.868 324.316 394.515 321.483C393.106 319.789 392.194 318.502 391.779 317.631C391.315 316.646 392.243 316.451 393.09 316.263C398.236 315.115 402.584 314.855 407.119 317.175C409.359 318.323 412.005 320.31 414.228 321.222C415.807 321.873 417.493 322.337 419.309 322.622C419.496 322.647 419.577 322.574 419.569 322.386C419.447 320.269 418.975 318.307 418.161 316.491C417.42 314.838 415.189 313.926 413.12 312.819C409.318 310.775 406.037 308.031 404.099 304.074C402.837 301.493 402.096 299.107 401.868 296.917C401.851 296.77 401.86 296.632 401.9 296.51C401.998 296.176 402.218 296.029 402.552 296.07C408.642 296.697 414.602 299.783 417.558 305.328C419.276 308.552 420.221 312.151 421.377 315.449C422.875 319.716 424.919 323.144 428.111 327.117C431.913 331.84 435.781 336.342 439.722 340.633C439.762 340.682 439.811 340.69 439.86 340.666C439.917 340.642 439.942 340.601 439.933 340.536C439.754 338.663 439.681 336.57 439.714 334.274C439.73 333.525 439.6 332.662 439.323 331.693C439.274 331.514 439.209 331.343 439.111 331.18C438.232 329.698 437.515 328.412 436.945 327.304C432.833 319.325 434.095 308.894 440.902 302.706C441.635 302.03 442.441 302.568 442.71 303.415C445.446 311.874 447.196 317.33 445.438 324.731C444.021 330.683 442.889 335.251 443.516 340.56C444.265 346.919 448.296 351.039 452.489 355.909C454.655 358.425 456.536 360.998 458.115 363.636C458.14 363.685 458.18 363.701 458.237 363.685C458.286 363.668 458.311 363.636 458.303 363.579C457.952 359.092 457.358 352.92 456.528 345.055C455.453 334.877 454.199 323.681 452.75 311.459C452.53 309.57 452.131 308.096 451.544 307.022C450.429 304.953 448.32 303.081 446.667 301.322C444.501 299.01 442.962 296.323 442.05 293.269C441.814 292.471 441.293 292.08 440.503 292.105C439.184 292.137 438.126 292.137 437.312 292.105C433.745 291.974 430.895 290.696 428.762 288.27C426.832 286.071 425.44 283.523 424.585 280.632C424.455 280.184 424.569 279.826 424.927 279.549C425.09 279.427 425.367 279.37 425.757 279.378C427.915 279.427 430.048 279.622 432.149 279.964C437.344 280.795 441.79 282.692 443.402 287.781C443.744 288.848 444.037 289.817 444.281 290.704C445.112 293.611 446.659 296.054 448.931 298.114C451.04 300.027 452.766 301.664 454.109 303.016C454.134 303.04 454.166 303.048 454.199 303.032C454.231 303.024 454.248 302.999 454.248 302.959C454.435 299.547 454.337 296.306 453.824 292.569C453.132 287.626 452.513 282.57 453.132 277.685C453.93 271.504 456.796 266.538 461.731 262.776C462.195 262.418 462.52 262.255 462.7 262.287C462.838 262.312 462.96 262.369 463.058 262.466C463.326 262.727 463.546 263.093 463.709 263.59C466.136 270.544 464.361 276.52 462.235 283.531C459.345 293.09 459.206 302.983 459.337 313.031C459.361 313.918 459.394 314.439 459.443 314.602C459.451 314.643 459.483 314.667 459.524 314.667C459.565 314.675 459.597 314.659 459.622 314.627C461.82 310.84 464.703 307.958 467.748 305.084C470.199 302.771 471.558 300.825 472.145 297.853C473.276 292.097 472.405 286.381 477.087 281.862C479.571 279.476 482.258 277.579 485.148 276.186C486.182 275.69 486.345 276.667 486.378 277.448C486.663 283.751 484.383 290.151 479.286 294.1C478.26 294.898 477.177 295.687 476.045 296.485C475.638 296.778 475.296 297.519 475.141 298.089C474.815 299.254 474.506 301.102 473.92 302.527C472.348 306.37 469.694 309.025 466.811 311.899C462.83 315.848 461.649 321.124 461.771 326.734C461.836 329.934 462.024 333.118 462.333 336.277C463.066 343.736 463.742 350.347 464.369 356.104C464.377 356.137 464.393 356.153 464.418 356.153C464.442 356.161 464.458 356.153 464.475 356.128C466.266 353.099 469.222 350.013 470.866 347.196C472.951 343.622 474.156 339.819 474.465 335.781C474.685 332.947 474.205 328.933 474.14 325.977C474.009 320.066 476.729 315.636 481.191 312.184C481.484 311.948 481.777 311.956 482.054 312.2C482.209 312.33 482.388 312.55 482.583 312.876C485.441 317.411 485.848 321.947 483.805 326.49C482.852 328.615 481.354 330.398 479.758 332.287C477.462 334.999 477.682 338.077 477.258 341.399C477.258 341.431 477.266 341.456 477.291 341.472C477.315 341.48 477.34 341.48 477.364 341.464C479.75 339.583 481.924 337.678 483.878 335.756C485.637 334.03 487.501 331.872 488.031 329.495C488.462 327.581 488.706 325.831 488.771 324.243C489.065 316.996 490.025 310.018 491.654 303.317C492.712 298.953 496.564 295.443 500.554 293.627C500.684 293.57 500.814 293.554 500.953 293.587C501.376 293.684 501.612 293.994 501.661 294.523C502.231 300.19 500.57 305.157 496.678 309.407C495.978 310.173 495.139 311.077 494.162 312.119C492.427 313.959 492.208 316.849 492.102 319.463C492.061 320.514 491.955 323.551 491.971 326.62C491.988 330.366 490.84 333.68 488.519 336.57C488.495 336.595 488.495 336.627 488.511 336.66C488.535 336.693 488.568 336.701 488.6 336.684C496.865 333.688 504.429 328.037 506.563 319.097C507.141 316.687 507.589 314.097 508.37 311.231C510.43 303.675 516.863 299.417 524.061 297.397C524.297 297.332 524.5 297.373 524.688 297.536C524.875 297.69 524.956 297.894 524.924 298.13C524.126 305.304 521.064 311.239 515.747 315.938C514.339 317.191 512.873 318.462 511.35 319.764C510.903 320.139 510.251 320.913 509.396 322.069C509.364 322.109 509.339 322.15 509.323 322.191L506.815 327.972C506.807 327.996 506.815 328.021 506.823 328.037C506.839 328.053 506.864 328.062 506.888 328.062C510.015 327.239 511.57 325.651 514.339 323.225C518.89 319.235 524.704 319.325 530.379 320.131C530.591 320.163 530.746 320.277 530.843 320.473C530.941 320.66 530.933 320.856 530.827 321.043C529.508 323.388 527.985 325.472 526.259 327.296C523.694 330.016 520.364 330.871 516.594 330.578C514.811 330.439 513.573 330.358 512.873 330.325C509.07 330.17 505.634 331.229 502.565 333.525C498.567 336.497 494.854 339.135 490.172 340.975C487.005 342.213 483.862 342.417 481.109 344.64C475.768 348.955 470.817 354.37 468.114 360.582C467.78 361.348 467.512 362.423 467.324 363.799C466.738 368.073 466.209 372.568 465.728 377.282C465.728 377.331 465.745 377.364 465.794 377.372C465.842 377.388 465.875 377.372 465.891 377.323C467.17 374.441 468.766 371.851 470.679 369.555C474.473 364.987 479.579 362.789 485.376 361.071C489.903 359.727 493.698 358.514 496.759 357.439C500.822 356.006 504.144 353.751 506.742 350.681C509.421 347.489 512.376 344.762 515.617 342.921C520.625 340.088 526.275 339.437 532.162 339.323C532.545 339.314 532.773 339.502 532.846 339.868C532.895 340.129 532.846 340.438 532.675 340.796C529.956 346.643 524.37 351.162 517.824 351.911C516.277 352.082 514.265 352.269 511.806 352.473C509.657 352.652 508.085 354.296 506.921 356.031C506.815 356.194 506.831 356.34 506.978 356.47C507.955 357.334 508.663 357.537 510.072 357.252C511.603 356.935 512.938 356.65 514.078 356.389C518.084 355.501 521.903 355.835 525.543 357.407C527.383 358.197 529.451 359.288 531.739 360.688C532.024 360.859 532.105 361.095 531.983 361.405C531.82 361.82 531.267 362.089 531.006 362.292C525.591 366.494 518.638 366.551 512.515 363.856C510.764 363.082 508.281 361.291 506.229 360.859C503.981 360.387 502.06 360.444 500.448 361.022C495.049 362.976 490.058 364.694 485.482 366.176C482.705 367.072 480.759 367.894 479.652 368.635C474.433 372.161 471.485 377.877 469.694 383.756C466.738 393.429 466.184 402.923 465.818 413.654C465.737 416.04 465.802 418.507 466.022 421.04C466.201 423.197 467.096 424.891 468.709 426.112C474.107 430.224 480.824 432.398 487.509 434.727C487.575 434.751 487.689 434.833 487.843 434.955C487.86 434.971 487.868 434.996 487.851 435.02C487.843 435.036 487.827 435.053 487.803 435.053H487.811ZM457.228 291.983C457.912 288.188 458.921 284.345 460.265 280.453C461.804 276.007 462.651 271.488 461.429 266.896C461.413 266.863 461.397 266.839 461.356 266.831C461.323 266.823 461.291 266.831 461.266 266.855C454.614 273.719 455.054 283.327 457.114 291.983C457.122 292.015 457.138 292.04 457.171 292.031C457.212 292.031 457.228 292.015 457.228 291.983ZM475.89 293.351C478.056 292.129 479.774 290.525 481.061 288.522C482.518 286.25 483.096 283.164 483.495 280.396C483.503 280.347 483.487 280.315 483.446 280.29C483.406 280.258 483.365 280.258 483.324 280.282C479.514 282.537 476.639 285.11 476.037 289.67C475.858 291.087 475.744 292.276 475.711 293.237C475.703 293.375 475.768 293.416 475.89 293.351ZM440.853 289.23C438.777 283.368 434.291 282.505 428.607 282.187C428.469 282.179 428.42 282.244 428.477 282.375C430.382 286.576 433.305 289.548 438.191 289.613C439.429 289.621 440.267 289.589 440.707 289.491C440.853 289.467 440.902 289.377 440.853 289.23ZM492.965 309.619C492.957 309.652 492.973 309.668 492.997 309.684C493.014 309.692 493.038 309.692 493.054 309.676C496.824 306.444 498.86 302.364 499.161 297.446C499.161 297.422 499.145 297.397 499.12 297.381C499.096 297.365 499.063 297.365 499.039 297.381C494.504 300.426 493.535 304.522 492.957 309.619H492.965ZM409.513 306.956C411.321 308.911 413.658 310.45 416.524 311.581C416.557 311.598 416.589 311.598 416.622 311.565C416.654 311.541 416.662 311.508 416.654 311.467C416.133 308.683 415.05 305.825 413.063 303.675C411.077 301.526 408.308 300.223 405.572 299.482C405.532 299.465 405.499 299.482 405.475 299.506C405.45 299.531 405.442 299.563 405.45 299.604C406.354 302.551 407.706 305.002 409.513 306.956ZM510.219 317.175C515.593 312.941 520.079 308.487 521.333 301.436C521.341 301.412 521.333 301.387 521.309 301.363C521.284 301.346 521.26 301.346 521.235 301.355C518.622 302.38 516.35 303.871 514.412 305.817C511.342 308.919 510.756 312.713 510.105 317.11C510.096 317.143 510.113 317.167 510.137 317.183C510.162 317.2 510.186 317.2 510.219 317.175ZM437.417 318.095C437.474 321.849 438.696 325.464 441.09 328.933C441.106 328.974 441.147 328.99 441.187 328.982C441.236 328.974 441.261 328.949 441.277 328.908C442.401 325.505 443.272 321.564 443.223 318.014C443.174 314.456 442.181 310.539 440.959 307.168C440.943 307.136 440.919 307.111 440.878 307.103C440.837 307.103 440.805 307.119 440.78 307.152C438.484 310.686 437.369 314.333 437.426 318.087L437.417 318.095ZM477.34 330.708C477.348 330.757 477.372 330.797 477.429 330.814C477.478 330.83 477.519 330.814 477.559 330.773C478.129 330.17 478.724 329.511 479.343 328.786C482.697 324.886 483.365 320.465 480.808 315.775C480.743 315.644 480.654 315.636 480.556 315.742C476.493 319.919 476.362 325.301 477.331 330.708H477.34ZM410.767 322.582C408.259 320.839 405.695 318.885 403.081 318.16C400.777 317.517 398.35 317.509 395.802 318.128C395.688 318.16 395.663 318.226 395.72 318.331C397.283 321.035 399.466 322.72 402.258 323.38C404.726 323.958 408.031 323.192 410.727 322.745C410.767 322.736 410.792 322.712 410.8 322.671C410.808 322.631 410.8 322.598 410.767 322.582ZM513.484 327.744C514.778 328.102 516.097 328.298 517.457 328.338C521.333 328.436 524.842 325.879 526.731 322.533C526.821 322.386 526.78 322.297 526.601 322.272C524.973 322.036 523.352 322.044 521.732 322.313C518.353 322.867 515.918 325.375 513.451 327.597C513.427 327.622 513.419 327.646 513.427 327.679C513.435 327.72 513.451 327.736 513.484 327.744ZM412.306 348.442C411.093 347.465 409.635 346.358 407.926 345.128C404.376 342.571 400.386 341.317 395.973 341.391C395.891 341.391 395.875 341.423 395.899 341.497C397.764 345.576 400.777 348.01 404.929 348.792C407.144 349.216 409.855 348.882 412.249 348.629C412.29 348.629 412.322 348.597 412.339 348.556C412.347 348.515 412.339 348.475 412.306 348.442ZM511.554 350.388C514.591 349.989 517.718 349.9 520.16 349.036C523.58 347.815 526.292 345.551 528.295 342.246C528.319 342.205 528.319 342.156 528.295 342.107C528.262 342.067 528.23 342.042 528.173 342.05C526.178 342.164 524.24 342.49 522.359 343.019C518.247 344.175 514.461 347.115 511.472 350.225C511.44 350.258 511.44 350.29 511.456 350.331C511.481 350.372 511.513 350.388 511.554 350.388ZM409.635 360.729C408.121 360.338 406.362 359.768 404.359 359.003C400.606 357.562 397.031 357.895 393.652 359.988C393.562 360.045 393.562 360.11 393.652 360.167C398.66 363.856 404.237 363.75 409.668 360.957C409.725 360.932 409.749 360.892 409.741 360.835C409.733 360.778 409.701 360.745 409.644 360.729H409.635ZM527.024 361.38C524.24 359.516 520.421 357.871 516.977 358.53C514.404 359.027 512.441 359.385 511.074 359.605C511.017 359.613 510.984 359.646 510.968 359.695C510.96 359.752 510.976 359.793 511.017 359.833C515.658 363.424 521.773 364.336 527.008 361.608C527.138 361.527 527.138 361.454 527.008 361.38H527.024Z" fill="#07306D"/>
</g>
<mask id="mask3_4736_6530" style="mask-type:luminance" maskUnits="userSpaceOnUse" x="552" y="180" width="292" height="255">
<path d="M552.379 180H843.16V434.825H552.379V180Z" fill="white"/>
</mask>
<g mask="url(#mask3_4736_6530)">
<path d="M697.077 180.318C695.856 180.456 694.716 181.01 693.853 181.881L554.52 321.222C552.411 323.347 552.427 326.775 554.56 328.884C555.57 329.877 556.93 330.439 558.355 330.447H587.781V429.549C587.79 432.529 590.208 434.939 593.18 434.947H802.187C805.167 434.939 807.577 432.529 807.586 429.549V330.447H837.02C840.017 330.439 842.427 328.005 842.419 325.008C842.411 323.591 841.849 322.232 840.855 321.222L806.893 287.26V240.751C806.877 237.779 804.467 235.369 801.487 235.352H778.501C775.529 235.369 773.111 237.779 773.103 240.751V253.469L701.515 181.881C700.35 180.709 698.714 180.13 697.077 180.318Z" fill="#E2BC2C"/>
</g>
<mask id="mask4_4736_6530" style="mask-type:luminance" maskUnits="userSpaceOnUse" x="623" y="263" width="144" height="140">
<path d="M623.508 263.842H766.423V402.882H623.508V263.842Z" fill="white"/>
</mask>
<g mask="url(#mask4_4736_6530)">
<path fill-rule="evenodd" clip-rule="evenodd" d="M754.495 307.608C756.253 302.999 759.535 298.838 764.339 295.134C766.415 286.356 764.746 278.393 759.323 271.244L753.045 288.603C753.045 288.603 749.365 287.284 742.004 284.63C742.004 284.63 743.966 278.629 747.899 266.627C735.873 270.804 722.601 287.748 735.922 299.091C737.436 300.809 738.617 302.828 739.472 305.165V359.76C737.713 364.368 734.432 368.521 729.636 372.234C727.551 381.011 729.221 388.975 734.643 396.124L740.921 378.764C740.921 378.764 744.602 380.083 751.97 382.729C751.97 382.729 750 388.739 746.067 400.74C758.102 396.563 771.366 379.619 758.045 368.277C756.538 366.559 755.35 364.539 754.495 362.202V307.608ZM634.769 340.56H623.508V345.6C624.574 346.504 625.454 347.595 626.097 348.816C626.928 350.38 627.375 352.138 627.375 353.954C627.375 355.762 626.928 357.529 626.097 359.092C625.454 360.305 624.574 361.396 623.508 362.308V391.124C623.508 394.145 624.745 396.897 626.74 398.892L626.838 398.998C628.825 400.928 631.528 402.125 634.508 402.125C637.537 402.125 640.289 400.887 642.276 398.9V398.892C644.271 396.897 645.509 394.145 645.509 391.124V362.308C644.442 361.405 643.563 360.305 642.919 359.092C642.089 357.529 641.641 355.77 641.641 353.954C641.641 352.138 642.089 350.38 642.919 348.816C643.563 347.603 644.442 346.512 645.509 345.6V340.568H634.769V340.56ZM636.438 364.271C636.438 363.082 637.399 362.113 638.596 362.113C639.784 362.113 640.753 363.082 640.753 364.271V393.567C640.753 394.756 639.784 395.725 638.596 395.725C637.399 395.725 636.438 394.756 636.438 393.567V364.271ZM628.263 364.271C628.263 363.082 629.232 362.113 630.421 362.113C631.61 362.113 632.578 363.082 632.578 364.271V393.567C632.578 394.756 631.61 395.725 630.421 395.725C629.232 395.725 628.263 394.756 628.263 393.567V364.271ZM636.405 285.745L640.094 278.922L636.332 264.396H634.769L634.524 264.388L632.106 264.396L628.353 278.922L631.968 285.623C632.179 285.957 632.302 286.348 632.302 286.771V336.253H636.137V286.763C636.145 286.421 636.226 286.071 636.405 285.745ZM683.175 302.087L680.407 379.017C680.252 383.283 682.076 386.011 684.494 387.216C685.504 387.721 686.62 387.981 687.743 387.981V387.973C688.875 387.973 689.991 387.721 690.984 387.216C693.402 386.011 695.218 383.291 695.071 379.017L692.295 302.087H683.175ZM675.79 277.448C669.472 277.92 664.423 280.721 660.824 284.801C658.04 287.952 656.102 291.877 655.092 296.086C661.354 290.525 667.542 287.814 673.657 287.952C674.487 287.919 675.302 288.383 675.676 289.181L679.764 297.772H696.04L699.33 293.684C699.721 293.122 700.372 292.756 701.105 292.756H706.756C707.277 292.764 707.806 292.951 708.213 293.334L711.6 296.444H717.748C717.715 290.541 717.715 284.679 717.748 278.775H711.6L708.319 281.796C707.928 282.203 707.375 282.464 706.756 282.464L701.105 282.456C700.478 282.456 699.851 282.179 699.428 281.658L696.04 277.448H675.79Z" fill="white"/>
</g>
</svg>
